<svg id="svg" version="1.1" xmlns="http://www.w3.org/2000/svg" xmlns:xlink="http://www.w3.org/1999/xlink" width="400" height="418.2692307692308" viewBox="0, 0, 400,418.2692307692308"><g id="svgg"><path id="path0" d="M229.000 48.775 C 229.440 48.953,230.970 49.205,232.400 49.334 L 235.000 49.569 232.600 49.002 C 229.869 48.357,227.618 48.215,229.000 48.775 M235.281 49.814 C 235.538 50.071,244.589 52.015,245.301 51.966 C 246.126 51.909,243.631 51.207,239.661 50.380 C 235.753 49.565,234.924 49.458,235.281 49.814 M246.400 52.376 C 246.730 52.569,248.170 53.027,249.600 53.393 C 252.412 54.113,259.855 56.562,261.800 57.408 C 262.460 57.695,264.031 58.301,265.291 58.756 C 266.551 59.210,267.901 59.757,268.291 59.971 C 268.681 60.184,270.170 60.885,271.600 61.528 C 277.208 64.050,280.064 65.514,285.200 68.502 C 286.190 69.078,287.654 69.914,288.454 70.359 C 289.768 71.091,295.747 75.040,298.530 77.015 C 300.395 78.337,306.526 83.133,307.844 84.299 C 308.528 84.905,310.145 86.300,311.437 87.400 C 312.730 88.500,316.008 91.621,318.723 94.337 C 321.439 97.052,323.726 99.207,323.807 99.126 C 323.997 98.936,317.915 92.664,313.795 88.800 C 300.132 75.987,279.606 63.330,262.400 57.109 C 252.371 53.482,244.124 51.043,246.400 52.376 M259.786 90.135 C 256.585 93.155,257.658 96.882,262.654 100.091 C 269.078 104.217,275.635 98.484,271.107 92.700 C 270.461 91.875,269.734 91.200,269.492 91.200 C 269.249 91.200,269.512 91.695,270.076 92.300 C 274.560 97.107,270.406 103.091,264.459 100.392 C 257.998 97.461,256.520 91.310,261.767 89.188 C 262.449 88.912,262.473 88.846,261.901 88.825 C 261.516 88.811,260.565 89.401,259.786 90.135 M264.400 89.174 C 264.950 89.342,266.165 89.870,267.100 90.348 C 268.035 90.825,268.800 91.052,268.800 90.852 C 268.800 90.330,265.377 88.794,264.304 88.834 C 263.437 88.867,263.441 88.881,264.400 89.174 M261.804 91.994 C 261.654 92.237,262.010 92.298,262.731 92.154 C 264.019 91.896,265.055 92.332,267.258 94.058 C 268.821 95.283,269.601 95.565,268.818 94.622 C 267.117 92.572,262.513 90.847,261.804 91.994 M260.814 93.846 C 260.772 95.176,265.503 98.787,267.300 98.796 C 268.303 98.802,269.608 97.356,269.554 96.300 C 269.512 95.485,269.489 95.476,269.312 96.200 C 269.043 97.304,268.006 98.400,267.229 98.400 C 266.252 98.400,261.962 95.446,261.359 94.357 C 261.067 93.831,260.822 93.601,260.814 93.846 M254.600 99.353 C 250.599 101.156,250.286 107.268,254.094 109.233 C 254.819 109.607,254.745 109.431,253.725 108.350 C 247.853 102.135,255.544 96.570,262.447 102.037 C 268.457 106.797,264.000 114.046,257.187 110.593 C 256.094 110.040,255.200 109.747,255.200 109.944 C 255.200 110.782,259.329 112.089,261.361 111.894 C 265.813 111.466,267.430 106.125,264.097 102.857 C 260.995 99.816,256.915 98.310,254.600 99.353 M255.029 102.629 C 254.683 102.974,254.409 103.469,254.421 103.729 C 254.433 103.988,254.724 103.795,255.070 103.300 C 256.081 101.851,261.353 103.737,262.159 105.837 C 263.482 109.284,259.689 109.574,256.134 106.296 C 255.180 105.417,254.400 104.870,254.400 105.079 C 254.400 106.075,259.049 109.200,260.530 109.200 C 261.516 109.200,262.488 108.334,262.947 107.046 C 263.744 104.814,256.746 100.911,255.029 102.629 M247.753 109.086 C 246.005 110.969,245.496 112.239,246.205 112.948 C 247.188 113.931,248.404 114.147,248.929 113.432 C 249.425 112.759,250.201 113.168,256.742 117.554 L 258.883 118.990 259.840 117.795 C 261.057 116.274,261.040 115.954,259.697 115.112 C 257.430 113.690,251.785 110.015,251.400 109.711 C 249.220 107.983,248.838 107.918,247.753 109.086 M253.512 111.717 C 255.651 113.110,257.985 114.592,258.700 115.011 C 260.116 115.841,260.207 116.066,259.586 117.226 C 258.941 118.432,258.307 118.138,251.068 113.276 C 249.767 112.402,249.417 112.322,248.743 112.743 C 246.705 114.016,245.964 112.675,247.426 110.359 C 248.637 108.441,248.403 108.389,253.512 111.717 M248.747 118.600 C 247.763 120.267,247.821 120.257,246.347 119.017 C 244.962 117.851,244.254 118.020,243.566 119.682 C 243.026 120.986,243.030 120.992,245.333 122.522 C 246.038 122.990,246.034 123.049,245.233 124.067 C 244.114 125.489,244.183 126.099,245.552 126.908 C 246.705 127.589,246.705 127.589,247.652 126.197 C 248.734 124.608,248.774 124.593,249.824 125.387 C 250.916 126.214,252.298 126.139,252.786 125.226 C 253.453 123.979,253.276 123.418,251.972 122.647 C 251.091 122.127,250.823 121.735,251.021 121.261 C 252.191 118.469,252.195 118.432,251.385 117.819 C 250.187 116.913,249.648 117.073,248.747 118.600 M250.981 118.379 C 251.656 119.125,251.647 119.210,250.773 120.438 L 249.860 121.720 250.683 122.360 C 251.135 122.712,251.823 123.188,252.211 123.417 C 252.800 123.766,252.839 123.980,252.444 124.717 C 251.866 125.798,251.300 125.817,250.000 124.800 C 248.671 123.761,248.602 123.778,247.600 125.400 C 246.633 126.965,246.467 127.030,245.409 126.256 C 244.691 125.731,244.697 125.661,245.609 124.185 C 246.505 122.735,246.516 122.636,245.829 122.229 C 243.733 120.987,243.530 120.665,244.223 119.682 L 244.871 118.763 246.258 119.582 C 248.075 120.653,248.146 120.638,249.028 119.000 C 249.902 117.376,250.035 117.334,250.981 118.379 M212.433 160.600 C 212.411 161.259,215.753 166.506,216.400 166.828 C 216.730 166.992,218.440 167.698,220.200 168.397 C 224.697 170.184,228.882 172.888,232.498 176.343 C 234.204 177.973,235.600 179.123,235.600 178.899 C 235.600 176.518,223.506 168.598,216.700 166.520 C 216.315 166.403,216.000 166.187,216.000 166.040 C 216.000 165.813,214.931 164.039,212.924 160.936 C 212.661 160.531,212.441 160.380,212.433 160.600 M199.340 169.764 C 173.179 174.761,160.826 204.372,175.630 226.600 C 192.812 252.398,233.493 244.708,241.226 214.200 C 247.575 189.157,224.724 164.916,199.340 169.764 M185.105 249.700 C 181.023 257.778,169.901 279.593,163.131 292.800 C 158.201 302.418,152.606 313.406,138.933 340.317 C 134.425 349.192,134.237 349.658,134.988 350.117 C 143.600 355.395,157.172 360.592,168.200 362.834 C 173.881 363.989,174.111 364.034,175.000 364.172 C 175.440 364.241,176.070 364.399,176.400 364.523 C 182.519 366.829,217.511 366.794,231.000 364.468 L 235.000 363.779 234.964 362.389 C 234.944 361.625,234.363 358.300,233.672 355.000 C 230.555 340.099,229.512 335.079,228.607 330.600 C 227.699 326.110,226.478 320.187,220.381 290.700 C 219.050 284.265,217.437 276.390,216.796 273.200 C 216.156 270.010,214.990 264.340,214.206 260.600 C 213.422 256.860,212.481 252.202,212.115 250.248 L 211.449 246.697 208.024 246.911 C 202.036 247.287,194.767 246.235,190.746 244.410 C 189.786 243.974,188.817 243.614,188.594 243.609 C 188.371 243.604,186.801 246.345,185.105 249.700 M195.133 281.900 L 195.000 283.800 196.700 283.923 C 199.561 284.130,199.286 286.400,196.400 286.400 L 194.400 286.400 194.400 288.000 C 194.400 289.526,194.342 289.600,193.148 289.600 C 191.905 289.600,191.897 289.588,192.095 287.837 L 192.293 286.075 190.556 285.814 C 188.574 285.517,188.345 285.298,188.678 284.023 C 188.894 283.199,189.088 283.131,190.621 283.341 C 192.497 283.598,192.800 283.296,192.800 281.167 C 192.800 280.130,192.937 280.000,194.033 280.000 C 195.256 280.000,195.265 280.015,195.133 281.900 M189.600 293.678 C 189.600 294.135,189.150 294.925,188.600 295.435 C 186.259 297.605,188.732 301.185,191.375 299.453 C 192.554 298.680,192.783 296.686,191.815 295.617 C 190.024 293.637,196.517 292.142,199.337 293.885 C 200.374 294.525,198.838 302.400,197.677 302.400 C 196.562 302.400,196.526 302.254,196.860 299.127 C 197.030 297.536,197.131 296.208,197.084 296.175 C 197.038 296.142,196.414 296.003,195.697 295.867 L 194.394 295.619 194.629 297.109 C 195.266 301.154,191.485 303.582,187.618 301.609 C 184.352 299.943,184.445 294.732,187.771 293.038 C 189.126 292.347,189.600 292.513,189.600 293.678 M194.168 305.240 C 199.432 306.701,199.343 313.644,194.045 314.834 C 187.338 316.341,181.391 311.025,184.855 306.621 C 186.282 304.807,190.406 304.195,194.168 305.240 M187.300 307.790 C 184.758 309.641,186.799 311.992,191.221 312.309 C 194.434 312.539,195.600 311.910,195.600 309.947 C 195.600 307.762,189.511 306.180,187.300 307.790 M193.692 317.888 C 196.496 319.002,197.483 321.893,196.032 324.737 C 193.931 328.856,183.566 327.728,182.677 323.283 C 181.622 318.010,187.166 315.294,193.692 317.888 M185.900 320.006 C 184.817 320.677,184.969 323.030,186.145 323.801 C 188.840 325.566,194.400 324.650,194.400 322.441 C 194.400 320.377,188.177 318.594,185.900 320.006 " stroke="none" fill="#06c08c" fill-rule="evenodd"></path><path id="path1" d="M206.438 22.290 C 202.165 23.096,198.571 32.395,202.407 32.719 C 203.556 32.815,203.959 33.103,204.607 34.286 C 206.952 38.570,213.802 38.606,215.689 34.344 C 216.090 33.438,216.470 33.216,217.789 33.119 L 219.400 33.000 219.525 31.026 C 219.920 24.785,214.036 20.857,206.438 22.290 M195.800 47.034 C 194.920 47.118,191.950 47.386,189.200 47.630 C 174.949 48.896,158.692 52.920,144.600 58.672 C 137.917 61.399,123.026 69.025,121.254 70.626 C 121.103 70.763,122.039 72.395,124.223 75.800 C 124.929 76.900,129.414 84.100,134.190 91.800 C 138.965 99.500,143.287 106.430,143.794 107.200 C 144.300 107.970,149.075 115.620,154.405 124.200 C 159.735 132.780,164.504 140.430,165.003 141.200 C 165.502 141.970,168.154 146.200,170.896 150.600 C 182.069 168.524,183.651 170.999,183.919 170.975 C 184.074 170.961,185.786 170.193,187.725 169.267 C 189.664 168.341,192.025 167.376,192.973 167.123 C 194.686 166.664,194.723 166.615,199.848 157.951 C 202.682 153.160,205.123 149.231,205.274 149.220 C 205.425 149.209,206.897 151.486,208.546 154.280 C 211.093 158.595,211.577 159.213,211.760 158.380 C 211.878 157.841,213.154 148.940,214.596 138.600 C 216.037 128.260,217.390 118.720,217.602 117.400 C 217.815 116.080,218.350 112.300,218.791 109.000 C 219.233 105.700,219.948 100.660,220.380 97.800 C 220.811 94.940,221.810 87.920,222.598 82.200 C 223.387 76.480,224.377 69.550,224.798 66.800 C 225.220 64.050,225.933 58.977,226.384 55.527 C 226.835 52.077,227.299 49.007,227.416 48.703 C 227.825 47.636,203.154 46.334,195.800 47.034 M83.275 67.486 C 82.443 67.644,79.986 69.832,78.400 71.826 C 76.604 74.083,77.713 80.864,80.271 83.266 L 81.205 84.145 82.329 83.068 C 83.350 82.090,83.573 82.032,84.755 82.444 C 89.419 84.070,94.288 79.822,93.214 75.064 C 92.942 73.858,93.036 73.518,93.848 72.755 C 97.169 69.635,90.203 66.163,83.275 67.486 M184.155 83.583 C 188.171 85.110,187.004 91.486,182.435 92.978 C 176.255 94.996,172.400 93.330,172.400 88.640 C 172.400 84.885,179.521 81.821,184.155 83.583 M336.717 85.195 C 333.745 86.091,332.752 87.504,333.989 89.077 C 334.728 90.017,334.738 90.159,334.146 91.305 C 331.709 96.016,336.276 101.858,341.334 100.500 C 342.869 100.087,343.081 100.129,344.022 101.026 C 345.383 102.324,345.730 102.264,347.084 100.500 C 350.854 95.588,349.972 90.431,344.617 86.067 C 343.170 84.888,339.192 84.449,336.717 85.195 M178.287 86.198 C 173.594 87.488,173.871 91.573,178.618 91.083 C 181.757 90.759,183.766 89.693,183.930 88.265 C 184.209 85.825,182.251 85.107,178.287 86.198 M187.170 95.785 C 190.774 97.648,190.083 103.005,186.012 104.757 C 179.600 107.515,174.380 105.097,175.369 99.825 C 176.001 96.456,183.502 93.888,187.170 95.785 M182.001 98.040 C 177.489 98.923,176.284 103.204,180.549 103.198 C 185.514 103.191,188.736 100.202,185.911 98.223 C 184.934 97.538,184.635 97.524,182.001 98.040 M191.440 107.819 C 191.796 109.234,191.754 109.256,186.073 110.605 C 181.251 111.751,180.994 111.863,180.878 112.863 C 180.556 115.629,178.413 114.409,177.794 111.107 L 177.535 109.728 182.267 108.629 C 184.870 108.025,187.540 107.383,188.200 107.202 C 190.441 106.586,191.166 106.725,191.440 107.819 M187.354 115.500 C 187.766 116.882,188.800 121.660,188.800 122.178 C 188.800 122.878,187.330 123.242,186.858 122.659 C 186.308 121.978,185.081 116.086,185.346 115.396 C 185.663 114.572,187.100 114.646,187.354 115.500 M52.609 160.100 C 52.517 160.375,51.973 162.554,51.400 164.942 C 42.783 200.821,44.459 234.165,56.389 264.200 C 58.181 268.712,57.400 268.629,65.600 265.178 C 67.250 264.484,70.040 263.321,71.800 262.594 C 79.143 259.563,87.278 256.217,91.400 254.532 C 93.820 253.543,97.870 251.862,100.400 250.798 C 105.992 248.445,127.543 239.550,141.600 233.794 C 145.945 232.015,155.476 228.066,159.400 226.419 C 161.600 225.496,164.414 224.365,165.653 223.907 L 167.907 223.074 167.391 221.837 C 164.298 214.409,163.553 201.801,165.852 195.808 C 166.076 195.224,165.358 194.984,132.800 184.733 C 130.710 184.075,128.010 183.212,126.800 182.816 C 125.590 182.420,122.170 181.340,119.200 180.416 C 116.230 179.492,112.810 178.406,111.600 178.003 C 110.390 177.600,106.970 176.521,104.000 175.605 C 101.030 174.690,97.610 173.609,96.400 173.202 C 95.190 172.796,92.130 171.812,89.600 171.015 C 87.070 170.217,83.380 169.051,81.400 168.422 C 72.054 165.454,69.834 164.753,64.800 163.178 C 61.830 162.249,58.108 161.064,56.529 160.545 C 53.231 159.459,52.837 159.415,52.609 160.100 M110.000 206.739 C 110.000 212.857,110.491 216.055,111.490 216.434 C 113.469 217.187,112.537 218.582,109.963 218.718 L 107.727 218.836 107.476 212.160 C 107.196 204.726,107.183 204.800,108.824 204.800 C 109.964 204.800,110.000 204.860,110.000 206.739 M89.832 206.062 C 93.266 207.713,93.223 217.568,89.775 219.138 C 85.574 221.053,82.000 217.990,82.000 212.475 C 82.000 206.796,85.462 203.961,89.832 206.062 M102.758 206.226 C 105.552 208.577,105.543 216.433,102.744 218.508 C 97.995 222.028,93.092 216.318,94.789 209.245 C 95.724 205.348,99.855 203.783,102.758 206.226 M77.168 206.183 C 80.923 208.125,80.940 217.590,77.192 219.487 C 72.934 221.641,69.330 218.082,69.679 212.066 C 69.989 206.701,73.237 204.151,77.168 206.183 M120.312 207.600 C 120.625 210.392,120.722 210.515,122.420 210.243 C 123.965 209.996,124.000 210.017,124.000 211.191 C 124.000 212.279,123.853 212.414,122.421 212.643 C 120.904 212.886,120.837 212.961,120.721 214.548 C 120.533 217.123,118.264 217.082,118.077 214.500 L 117.954 212.800 116.177 212.800 C 113.481 212.800,113.410 210.518,116.100 210.323 C 117.727 210.205,117.805 210.140,117.915 208.800 C 118.088 206.703,118.309 206.331,119.298 206.472 C 119.920 206.560,120.235 206.910,120.312 207.600 M98.000 208.400 C 95.185 211.215,98.340 218.788,101.235 216.168 C 103.223 214.370,101.930 207.600,99.600 207.600 C 99.160 207.600,98.440 207.960,98.000 208.400 M85.357 209.009 C 84.421 210.438,84.750 215.882,85.821 216.664 C 88.068 218.308,89.600 216.660,89.600 212.600 C 89.600 208.286,87.175 206.234,85.357 209.009 M72.826 209.151 C 70.723 213.081,73.825 219.334,76.593 216.742 C 77.221 216.154,77.307 210.745,76.706 209.600 C 75.998 208.251,73.465 207.958,72.826 209.151 M27.394 222.035 C 21.194 225.285,20.003 235.197,25.452 238.189 C 25.864 238.415,26.337 238.813,26.504 239.072 C 26.898 239.684,30.650 240.518,32.200 240.339 C 33.301 240.211,33.402 240.070,33.427 238.627 C 33.450 237.264,33.649 236.930,34.916 236.128 C 39.252 233.383,38.312 226.207,33.428 224.765 C 31.733 224.265,31.561 224.095,31.339 222.710 C 31.048 220.888,29.943 220.699,27.394 222.035 M379.500 221.428 C 379.335 221.596,379.200 222.240,379.200 222.859 C 379.200 223.762,378.895 224.139,377.650 224.774 C 373.273 227.007,372.388 232.250,375.853 235.423 C 376.998 236.472,377.216 236.932,377.136 238.129 C 377.012 239.959,377.139 240.067,379.472 240.125 C 381.851 240.184,384.206 239.729,384.887 239.079 C 385.169 238.810,385.895 238.273,386.500 237.886 C 387.105 237.498,387.600 236.935,387.600 236.634 C 387.600 236.332,387.842 235.993,388.138 235.879 C 389.975 235.174,390.016 228.220,388.198 225.598 C 386.114 222.590,380.842 220.063,379.500 221.428 M289.208 354.900 C 286.889 356.085,285.866 357.565,285.610 360.106 C 285.441 361.779,285.215 362.271,284.446 362.654 C 283.000 363.372,282.816 363.983,283.632 365.352 C 288.576 373.652,301.333 370.273,301.333 360.664 C 301.333 356.169,299.866 353.983,297.685 355.228 C 296.654 355.817,296.475 355.798,294.830 354.928 C 292.633 353.767,291.438 353.761,289.208 354.900 M118.000 354.689 C 117.670 354.813,116.892 355.270,116.271 355.705 C 115.174 356.473,115.106 356.475,113.802 355.773 C 112.167 354.893,111.423 355.333,110.809 357.543 C 109.264 363.107,112.255 369.086,116.939 369.794 C 117.852 369.932,119.034 370.260,119.565 370.523 C 120.324 370.898,120.567 370.893,120.699 370.500 C 120.791 370.225,121.290 370.000,121.807 370.000 C 126.188 370.000,130.434 364.153,126.874 363.023 C 126.312 362.845,126.146 362.354,126.123 360.798 C 126.060 356.637,121.647 353.318,118.000 354.689 " stroke="none" fill="#f7301c" fill-rule="evenodd"></path><path id="path2" d="M147.700 42.196 C 146.985 42.507,146.400 42.963,146.400 43.209 C 146.400 43.463,146.672 43.385,147.029 43.029 C 147.374 42.683,147.904 42.400,148.205 42.400 C 148.506 42.400,148.864 42.220,149.000 42.000 C 149.307 41.503,149.288 41.506,147.700 42.196 M194.900 42.676 C 195.285 42.776,195.915 42.776,196.300 42.676 C 196.685 42.575,196.370 42.493,195.600 42.493 C 194.830 42.493,194.515 42.575,194.900 42.676 M214.300 42.682 C 214.795 42.778,215.605 42.778,216.100 42.682 C 216.595 42.587,216.190 42.509,215.200 42.509 C 214.210 42.509,213.805 42.587,214.300 42.682 M145.400 45.714 C 144.880 46.811,144.041 47.723,143.000 48.325 C 141.907 48.957,141.717 49.170,142.400 48.998 C 143.645 48.685,146.400 45.758,146.400 44.749 C 146.400 43.710,146.310 43.797,145.400 45.714 M272.000 45.902 C 272.000 46.079,272.540 46.428,273.200 46.678 C 273.860 46.927,274.400 47.061,274.400 46.976 C 274.400 46.890,273.860 46.541,273.200 46.200 C 272.540 45.859,272.000 45.725,272.000 45.902 M135.646 47.945 C 136.171 48.355,137.050 48.817,137.600 48.972 C 138.194 49.139,137.894 48.837,136.859 48.227 C 134.809 47.018,134.310 46.902,135.646 47.945 M158.600 48.800 C 158.096 49.017,158.022 49.144,158.400 49.144 C 158.730 49.144,159.360 48.989,159.800 48.800 C 160.304 48.583,160.378 48.456,160.000 48.456 C 159.670 48.456,159.040 48.611,158.600 48.800 M274.400 51.563 C 274.400 51.928,277.154 54.599,277.298 54.373 C 277.358 54.278,276.731 53.544,275.904 52.741 C 275.077 51.939,274.400 51.409,274.400 51.563 M284.278 53.413 C 283.660 53.956,283.311 54.400,283.502 54.400 C 283.868 54.400,285.600 52.901,285.600 52.584 C 285.600 52.285,285.458 52.375,284.278 53.413 M115.800 74.020 C 113.160 75.760,110.707 77.540,110.350 77.975 C 109.992 78.410,109.602 78.669,109.483 78.550 C 109.364 78.431,108.504 79.096,107.572 80.028 C 106.639 80.961,106.025 81.483,106.207 81.189 C 106.388 80.895,105.867 81.165,105.049 81.790 C 104.231 82.414,103.381 83.261,103.161 83.673 C 102.940 84.085,102.613 84.332,102.433 84.221 C 102.254 84.110,101.768 84.417,101.353 84.903 C 100.850 85.493,100.805 85.656,101.219 85.393 C 101.559 85.177,101.390 85.394,100.842 85.876 C 100.295 86.358,99.727 86.679,99.581 86.589 C 99.436 86.498,98.885 86.914,98.358 87.512 L 97.400 88.600 98.600 87.605 C 99.449 86.902,99.338 87.106,98.219 88.305 C 96.602 90.039,95.883 90.554,96.832 89.300 C 97.289 88.696,97.282 88.671,96.781 89.120 C 96.461 89.406,96.200 89.856,96.200 90.120 C 96.200 90.384,95.566 90.910,94.792 91.289 C 94.017 91.668,92.668 92.748,91.792 93.689 L 90.201 95.400 92.200 93.601 L 94.200 91.802 92.023 94.091 C 90.826 95.350,89.766 96.299,89.667 96.201 C 89.568 96.102,88.977 96.826,88.353 97.810 C 87.361 99.374,86.272 100.443,87.038 99.100 C 87.195 98.825,86.756 99.129,86.062 99.775 C 84.642 101.097,84.324 101.740,85.673 100.562 L 86.545 99.800 85.773 100.859 C 85.348 101.441,84.874 101.841,84.719 101.747 C 84.564 101.653,84.167 102.077,83.835 102.688 C 83.503 103.300,83.225 103.652,83.216 103.471 C 83.207 103.291,82.919 103.424,82.574 103.768 C 82.230 104.112,82.078 104.603,82.236 104.859 C 82.404 105.130,82.350 105.216,82.107 105.066 C 81.878 104.925,81.468 105.077,81.196 105.404 C 80.924 105.732,80.859 106.005,81.051 106.012 C 81.243 106.019,81.081 106.210,80.692 106.437 C 80.302 106.664,80.105 107.046,80.253 107.286 C 80.409 107.537,80.340 107.610,80.092 107.457 C 79.855 107.311,79.275 107.733,78.803 108.395 C 78.332 109.058,78.072 109.600,78.227 109.600 C 78.381 109.600,78.034 109.973,77.454 110.429 C 76.874 110.885,76.400 111.515,76.400 111.829 C 76.400 112.143,76.232 112.400,76.027 112.400 C 75.636 112.400,70.296 120.316,66.988 125.800 C 64.559 129.827,57.674 143.549,57.437 144.836 C 57.339 145.366,57.246 146.126,57.230 146.524 C 57.212 146.947,57.016 147.134,56.757 146.974 C 56.455 146.787,56.405 146.987,56.600 147.600 C 56.795 148.214,56.745 148.413,56.442 148.226 C 55.947 147.920,55.056 149.844,55.421 150.434 C 55.545 150.635,55.473 150.800,55.261 150.800 C 55.049 150.800,54.976 151.188,55.100 151.663 C 55.245 152.215,55.173 152.431,54.900 152.262 C 54.642 152.102,54.545 152.274,54.654 152.699 C 54.753 153.085,54.477 154.431,54.041 155.691 L 53.249 157.982 60.925 160.414 C 65.146 161.751,69.860 163.273,71.400 163.795 C 72.940 164.318,77.710 165.858,82.000 167.219 C 86.290 168.579,93.040 170.741,97.000 172.021 C 104.264 174.371,119.535 179.275,135.000 184.225 C 153.073 190.010,157.164 191.327,161.592 192.785 L 166.184 194.297 166.826 192.248 C 168.883 185.680,176.103 176.088,181.462 172.806 C 183.081 171.814,183.083 171.810,182.387 170.806 C 181.264 169.187,179.670 166.642,164.208 141.800 C 156.130 128.820,149.112 117.570,148.613 116.800 C 148.115 116.030,146.031 112.700,143.982 109.400 C 140.479 103.756,138.576 100.712,135.162 95.285 C 134.371 94.028,132.045 90.300,129.993 87.000 C 127.941 83.700,124.935 78.881,123.313 76.291 C 121.691 73.701,120.473 71.406,120.606 71.191 C 120.962 70.614,120.994 70.595,115.800 74.020 M94.975 84.500 L 93.800 85.800 95.100 84.625 C 96.312 83.530,96.584 83.200,96.275 83.200 C 96.206 83.200,95.621 83.785,94.975 84.500 M321.400 90.400 C 324.033 93.040,326.277 95.200,326.387 95.200 C 326.497 95.200,324.433 93.040,321.800 90.400 C 319.167 87.760,316.923 85.600,316.813 85.600 C 316.703 85.600,318.767 87.760,321.400 90.400 M88.592 90.500 L 85.000 94.200 88.700 90.608 C 92.136 87.272,92.582 86.800,92.292 86.800 C 92.232 86.800,90.567 88.465,88.592 90.500 M82.575 96.900 L 81.400 98.200 82.700 97.025 C 83.912 95.930,84.184 95.600,83.875 95.600 C 83.806 95.600,83.221 96.185,82.575 96.900 M324.204 99.609 C 324.406 100.189,323.169 101.420,314.409 109.366 C 312.974 110.667,310.990 112.472,310.000 113.377 C 309.010 114.283,304.519 118.348,300.019 122.412 C 295.520 126.475,287.780 133.467,282.819 137.949 C 277.859 142.431,273.077 146.751,272.193 147.549 C 271.309 148.347,268.699 150.721,266.393 152.825 C 264.087 154.929,260.130 158.513,257.600 160.790 C 250.610 167.080,246.300 170.987,241.326 175.543 C 238.565 178.073,236.583 179.602,236.238 179.470 C 235.927 179.350,236.513 180.366,237.542 181.726 C 241.700 187.229,244.507 194.369,245.300 201.462 L 245.756 205.546 249.778 205.365 C 251.990 205.266,259.110 205.009,265.600 204.794 C 272.090 204.578,282.440 204.223,288.600 204.003 C 294.760 203.783,311.230 203.223,325.200 202.758 C 339.170 202.293,353.975 201.797,358.101 201.656 L 365.601 201.400 365.601 202.300 C 365.600 203.160,365.455 203.200,362.300 203.202 C 360.485 203.202,351.080 203.468,341.400 203.791 C 331.720 204.114,310.390 204.752,294.000 205.208 C 277.610 205.664,260.150 206.184,255.200 206.364 C 250.250 206.545,246.100 206.638,245.978 206.571 C 245.856 206.504,245.549 208.309,245.295 210.581 C 244.443 218.202,241.285 225.922,236.594 231.847 C 235.744 232.921,235.465 233.412,235.974 232.939 L 236.900 232.077 240.150 234.662 C 248.009 240.912,268.984 257.473,269.962 258.200 C 270.554 258.640,273.276 260.800,276.011 263.000 C 278.747 265.200,281.470 267.360,282.064 267.800 C 283.278 268.700,300.234 282.070,309.449 289.393 C 312.775 292.037,318.250 296.360,321.615 299.000 C 324.980 301.640,328.312 304.295,329.019 304.900 C 330.648 306.292,330.315 306.425,332.769 303.401 C 333.929 301.971,335.028 300.894,335.212 301.007 C 335.395 301.120,335.675 301.002,335.834 300.745 C 336.025 300.435,335.949 300.384,335.610 300.594 C 335.267 300.806,335.158 300.726,335.281 300.356 C 335.383 300.050,335.662 299.800,335.900 299.800 C 336.138 299.800,336.483 299.636,336.667 299.436 C 336.863 299.221,336.774 299.203,336.448 299.392 C 336.068 299.612,335.959 299.538,336.098 299.156 C 336.209 298.850,336.485 298.639,336.712 298.687 C 336.938 298.735,337.366 298.465,337.662 298.087 C 338.147 297.467,338.132 297.454,337.500 297.949 C 337.115 298.251,336.800 298.318,336.800 298.098 C 336.800 297.652,337.989 296.563,338.361 296.667 C 338.493 296.703,338.690 296.629,338.800 296.503 C 338.910 296.376,338.775 296.401,338.500 296.559 C 337.682 297.030,337.933 296.283,339.024 295.000 L 340.044 293.800 339.375 295.000 L 338.705 296.200 339.521 295.211 C 339.970 294.667,340.254 294.088,340.152 293.923 C 340.051 293.758,340.249 293.078,340.594 292.412 C 341.313 291.021,341.851 290.740,341.192 292.100 C 340.765 292.981,340.769 292.983,341.407 292.200 C 342.423 290.952,342.976 289.844,342.407 290.196 C 342.130 290.367,342.200 289.973,342.577 289.244 C 342.931 288.560,343.317 288.000,343.434 288.000 C 343.551 288.000,343.519 288.208,343.362 288.462 C 343.184 288.749,343.252 288.815,343.541 288.636 C 344.150 288.260,345.229 286.162,344.955 285.888 C 344.838 285.771,345.107 284.984,345.553 284.138 C 346.000 283.292,346.373 282.747,346.382 282.926 C 346.392 283.106,346.214 283.601,345.986 284.026 C 345.758 284.452,345.665 284.800,345.778 284.800 C 346.104 284.800,347.588 281.721,347.368 281.501 C 347.061 281.194,348.077 279.200,348.430 279.418 C 348.743 279.612,349.428 278.064,349.279 277.500 C 349.236 277.335,349.391 277.200,349.624 277.200 C 349.857 277.200,349.936 277.020,349.801 276.801 C 349.474 276.272,351.604 271.555,352.046 271.829 C 352.236 271.946,352.291 271.781,352.169 271.463 C 352.047 271.144,352.560 269.380,353.309 267.542 C 359.645 251.996,363.628 233.694,364.897 214.294 L 365.400 206.600 365.622 210.800 C 365.818 214.512,365.852 214.174,365.922 207.889 C 366.099 191.797,362.981 172.599,357.527 156.200 C 354.598 147.390,348.849 134.000,347.997 134.000 C 347.779 134.000,347.641 133.865,347.692 133.700 C 347.892 133.047,344.496 126.438,343.157 124.875 C 342.839 124.504,342.550 124.020,342.515 123.800 C 342.480 123.580,340.975 121.177,339.170 118.459 C 335.287 112.613,323.614 97.910,324.204 99.609 M105.714 124.190 C 109.255 125.670,109.780 129.186,107.068 133.270 C 103.668 138.393,98.987 138.942,96.745 134.481 C 94.479 129.972,101.172 122.292,105.714 124.190 M102.447 127.052 C 101.935 127.410,100.995 128.526,100.358 129.530 C 97.327 134.310,101.252 136.850,104.472 132.193 C 107.042 128.476,105.609 124.838,102.447 127.052 M116.705 131.599 C 120.686 134.026,118.873 141.054,113.513 143.973 L 111.625 145.000 109.713 144.000 C 105.890 142.002,105.551 138.730,108.721 134.445 C 111.382 130.849,113.965 129.928,116.705 131.599 M46.560 133.794 C 46.180 135.007,46.226 135.279,46.919 135.894 C 47.357 136.282,48.048 137.140,48.456 137.800 C 48.863 138.460,49.198 138.781,49.199 138.514 C 49.199 138.247,48.650 137.401,47.978 136.636 C 46.931 135.443,46.794 135.040,47.022 133.822 C 47.363 132.007,47.123 131.992,46.560 133.794 M112.305 134.300 C 108.786 138.281,108.447 141.600,111.559 141.600 C 113.116 141.600,116.400 137.645,116.400 135.769 C 116.400 133.890,113.566 132.874,112.305 134.300 M126.391 138.459 C 131.233 141.758,131.069 142.876,125.675 143.352 C 120.849 143.778,118.109 145.561,119.186 147.573 C 119.676 148.490,121.531 148.709,122.299 147.941 C 122.802 147.438,124.800 148.456,124.800 149.215 C 124.800 151.036,120.232 151.590,118.048 150.034 C 114.112 147.231,116.643 142.297,122.565 141.230 C 125.511 140.698,125.530 140.676,123.921 139.646 C 121.275 137.952,121.098 137.739,121.582 136.833 C 122.209 135.662,122.361 135.713,126.391 138.459 M355.228 138.600 C 355.228 138.820,355.486 139.450,355.800 140.000 C 356.114 140.550,356.372 140.820,356.372 140.600 C 356.372 140.380,356.114 139.750,355.800 139.200 C 355.486 138.650,355.228 138.380,355.228 138.600 M49.301 141.000 C 49.305 141.880,49.387 142.193,49.483 141.695 C 49.579 141.198,49.575 140.478,49.475 140.095 C 49.375 139.713,49.296 140.120,49.301 141.000 M48.800 143.132 C 48.800 143.388,48.132 144.363,47.315 145.299 C 45.905 146.913,45.896 146.939,47.149 145.800 C 48.600 144.481,49.393 143.260,49.032 142.899 C 48.905 142.771,48.800 142.876,48.800 143.132 M368.006 144.500 C 368.009 144.775,368.181 145.267,368.388 145.594 C 368.654 146.016,368.508 146.479,367.882 147.194 L 367.000 148.200 368.066 147.262 C 369.003 146.438,369.083 146.183,368.727 145.162 C 368.301 143.940,367.996 143.660,368.006 144.500 M135.651 147.046 C 136.334 147.664,136.322 147.757,135.377 149.146 C 134.296 150.736,134.215 150.523,136.534 152.194 C 137.232 152.697,137.235 152.775,136.583 153.770 L 135.897 154.817 134.498 153.749 L 133.099 152.682 131.842 154.180 L 130.584 155.677 129.592 154.873 L 128.600 154.069 129.500 152.851 C 130.669 151.268,130.638 150.986,129.200 150.136 C 127.867 149.349,127.742 148.906,128.544 147.809 C 129.069 147.091,129.139 147.097,130.612 148.007 L 132.136 148.950 133.119 147.675 C 134.234 146.230,134.638 146.130,135.651 147.046 M40.926 147.900 C 40.789 148.285,40.599 148.780,40.504 149.000 C 40.408 149.220,40.661 149.006,41.065 148.525 C 41.484 148.026,42.402 147.580,43.200 147.489 C 44.517 147.338,44.498 147.324,42.887 147.264 C 41.581 147.215,41.116 147.366,40.926 147.900 M366.430 148.964 C 366.172 149.275,365.876 150.220,365.772 151.064 L 365.584 152.600 366.133 150.958 C 366.435 150.054,366.809 149.109,366.964 148.858 C 367.363 148.213,366.991 148.287,366.430 148.964 M323.813 152.743 C 326.543 154.408,328.856 161.233,327.429 163.412 C 323.759 169.013,316.400 164.583,316.400 156.773 C 316.400 153.002,320.544 150.749,323.813 152.743 M319.606 155.188 C 318.116 156.130,320.203 162.499,322.242 163.230 C 324.728 164.120,325.829 161.533,324.391 158.179 C 323.021 154.983,321.467 154.011,319.606 155.188 M368.482 157.295 C 369.134 157.933,370.254 158.495,371.160 158.640 C 372.197 158.806,372.856 159.175,373.132 159.745 C 373.398 160.294,373.553 160.385,373.567 160.000 C 373.602 158.996,373.087 158.609,371.000 158.069 C 369.900 157.783,368.631 157.246,368.181 156.875 C 367.730 156.504,367.866 156.693,368.482 157.295 M312.400 157.700 C 315.347 159.711,317.426 166.174,315.884 168.527 C 312.449 173.770,304.800 169.016,304.800 161.639 C 304.800 157.928,309.310 155.591,312.400 157.700 M308.080 160.080 C 306.799 161.361,308.935 167.628,310.820 168.121 C 312.960 168.681,314.222 167.036,313.542 164.573 C 312.429 160.544,309.788 158.372,308.080 160.080 M46.229 162.629 C 46.081 163.215,46.038 163.772,46.132 163.866 C 46.227 163.960,46.424 163.558,46.571 162.971 C 46.719 162.385,46.762 161.828,46.668 161.734 C 46.573 161.640,46.376 162.042,46.229 162.629 M301.471 162.500 C 302.591 163.744,302.814 164.557,302.416 165.944 C 302.109 167.015,302.188 167.181,303.209 167.604 C 306.394 168.923,306.145 173.270,302.785 175.008 C 300.365 176.259,296.400 175.153,296.400 173.226 C 296.400 172.529,298.398 172.264,299.442 172.822 C 300.830 173.565,302.566 172.911,302.704 171.593 C 302.875 169.952,302.222 169.400,300.114 169.400 C 297.813 169.400,297.180 168.174,298.982 167.209 C 300.145 166.587,300.424 164.538,299.399 164.144 C 298.283 163.716,296.823 164.371,296.560 165.417 C 296.002 167.640,293.313 167.733,293.757 165.513 C 294.429 162.154,299.408 160.209,301.471 162.500 M288.543 170.373 L 289.172 171.947 290.817 171.300 C 293.420 170.278,294.322 172.278,291.800 173.481 C 290.210 174.239,290.187 174.316,290.979 176.210 C 291.512 177.488,291.499 177.626,290.805 177.997 C 289.582 178.652,289.224 178.481,288.505 176.900 C 288.130 176.075,287.801 175.353,287.773 175.295 C 287.746 175.237,287.030 175.479,286.184 175.833 C 284.741 176.435,284.612 176.431,284.122 175.761 C 283.346 174.700,283.450 174.493,285.205 173.598 C 286.805 172.781,286.808 172.776,286.205 171.609 C 285.190 169.647,285.461 169.049,287.457 168.846 C 287.708 168.821,288.196 169.508,288.543 170.373 M41.293 188.800 C 41.293 189.570,41.375 189.885,41.476 189.500 C 41.576 189.115,41.576 188.485,41.476 188.100 C 41.375 187.715,41.293 188.030,41.293 188.800 M40.893 192.400 C 40.893 193.170,40.975 193.485,41.076 193.100 C 41.176 192.715,41.176 192.085,41.076 191.700 C 40.975 191.315,40.893 191.630,40.893 192.400 M369.714 195.800 C 369.717 196.900,369.795 197.303,369.887 196.695 C 369.979 196.086,369.977 195.186,369.882 194.695 C 369.787 194.203,369.711 194.700,369.714 195.800 M40.501 198.600 C 40.505 199.480,40.587 199.793,40.683 199.295 C 40.779 198.798,40.775 198.078,40.675 197.695 C 40.575 197.313,40.496 197.720,40.501 198.600 M370.166 207.200 C 370.166 211.270,370.225 212.935,370.298 210.900 C 370.371 208.865,370.371 205.535,370.298 203.500 C 370.225 201.465,370.166 203.130,370.166 207.200 M44.957 208.000 C 44.957 210.970,45.020 212.185,45.097 210.700 C 45.174 209.215,45.174 206.785,45.097 205.300 C 45.020 203.815,44.957 205.030,44.957 208.000 M40.514 215.800 C 40.517 216.900,40.595 217.303,40.687 216.695 C 40.779 216.086,40.777 215.186,40.682 214.695 C 40.587 214.203,40.511 214.700,40.514 215.800 M365.320 218.800 C 365.320 220.010,365.395 220.505,365.487 219.900 C 365.578 219.295,365.578 218.305,365.487 217.700 C 365.395 217.095,365.320 217.590,365.320 218.800 M369.714 218.600 C 369.717 219.700,369.795 220.103,369.887 219.495 C 369.979 218.886,369.977 217.986,369.882 217.495 C 369.787 217.003,369.711 217.500,369.714 218.600 M168.047 223.457 C 168.021 223.708,167.325 224.192,166.500 224.533 C 165.675 224.874,162.120 226.349,158.600 227.811 C 155.080 229.273,150.220 231.281,147.800 232.273 C 141.653 234.794,114.396 246.044,108.600 248.453 C 105.960 249.550,102.540 250.971,101.000 251.610 C 99.460 252.249,93.970 254.504,88.800 256.620 C 83.630 258.736,78.230 260.967,76.800 261.579 C 75.370 262.190,70.780 264.089,66.600 265.800 C 62.420 267.510,58.871 269.023,58.712 269.162 C 58.176 269.634,64.294 281.424,69.525 290.000 C 77.304 302.751,87.985 315.976,97.948 325.191 C 100.163 327.240,101.896 329.044,101.800 329.200 C 101.704 329.356,102.113 329.915,102.709 330.442 C 103.710 331.325,103.735 331.330,103.035 330.500 C 102.618 330.005,102.453 329.600,102.668 329.600 C 103.152 329.600,104.741 331.253,104.779 331.796 C 104.794 332.013,105.030 332.204,105.303 332.219 C 106.151 332.265,107.200 332.865,107.200 333.305 C 107.200 333.535,106.795 333.387,106.300 332.975 C 105.411 332.236,105.409 332.236,106.110 333.009 C 106.500 333.439,107.130 333.793,107.509 333.796 C 107.888 333.798,108.198 334.010,108.199 334.267 C 108.200 334.523,108.364 334.883,108.564 335.067 C 108.776 335.260,108.808 335.190,108.641 334.900 C 108.156 334.058,109.029 334.345,109.838 335.293 C 110.592 336.177,110.592 336.180,109.800 335.612 C 109.102 335.111,109.066 335.112,109.520 335.619 C 109.806 335.939,110.211 336.223,110.420 336.250 C 110.629 336.278,110.991 336.322,111.224 336.350 C 111.457 336.378,111.549 336.560,111.428 336.755 C 111.307 336.950,111.517 337.085,111.895 337.055 C 112.272 337.025,112.585 337.270,112.590 337.599 C 112.596 337.929,112.960 338.199,113.400 338.199 C 113.840 338.200,114.157 338.419,114.105 338.686 C 114.052 338.953,114.232 339.087,114.505 338.985 C 114.777 338.883,115.540 339.259,116.200 339.822 L 117.400 340.844 116.200 340.175 L 115.000 339.505 115.975 340.311 C 116.512 340.754,117.147 341.042,117.387 340.950 C 117.627 340.858,118.178 341.070,118.611 341.421 C 119.045 341.772,119.147 341.928,118.838 341.768 C 118.466 341.575,118.374 341.634,118.566 341.945 C 118.725 342.202,119.019 342.312,119.219 342.188 C 119.707 341.887,121.278 342.750,121.016 343.175 C 120.902 343.359,121.122 343.485,121.504 343.455 C 121.889 343.425,122.151 343.637,122.090 343.930 C 122.030 344.221,122.159 344.349,122.378 344.213 C 122.974 343.845,125.275 345.156,124.951 345.679 C 124.788 345.943,124.858 346.012,125.122 345.848 C 125.367 345.697,127.211 346.409,129.219 347.431 C 131.227 348.453,133.012 349.134,133.185 348.945 C 133.504 348.594,135.531 344.643,154.799 306.800 C 169.611 277.710,175.126 266.896,181.625 254.200 L 187.153 243.400 184.275 241.722 C 177.710 237.896,169.571 228.839,168.347 224.000 C 168.208 223.450,168.073 223.205,168.047 223.457 M41.293 225.600 C 41.293 226.370,41.375 226.685,41.476 226.300 C 41.576 225.915,41.576 225.285,41.476 224.900 C 41.375 224.515,41.293 224.830,41.293 225.600 M46.093 227.200 C 46.093 227.970,46.175 228.285,46.276 227.900 C 46.376 227.515,46.376 226.885,46.276 226.500 C 46.175 226.115,46.093 226.430,46.093 227.200 M300.370 231.523 C 303.934 233.085,304.316 233.445,303.505 234.475 C 303.047 235.057,302.745 235.012,300.276 233.995 L 297.553 232.872 297.176 233.862 C 296.628 235.303,296.704 235.600,297.620 235.600 C 302.396 235.600,303.430 241.741,299.104 244.412 C 296.362 246.105,292.000 243.531,292.000 240.220 C 292.000 238.620,293.635 239.015,294.542 240.834 C 295.887 243.532,299.300 242.770,299.300 239.772 C 299.300 238.095,296.590 236.721,295.801 237.999 C 295.522 238.451,293.069 237.342,293.274 236.856 C 293.344 236.693,294.005 235.083,294.745 233.280 C 296.294 229.503,295.983 229.600,300.370 231.523 M290.392 234.400 C 290.380 235.989,289.807 236.013,286.379 234.571 C 282.427 232.908,282.380 232.870,282.822 231.717 L 283.161 230.835 286.779 232.317 C 289.080 233.260,290.395 234.019,290.392 234.400 M311.746 236.152 C 315.060 237.536,315.640 241.023,313.313 245.573 C 309.595 252.843,301.257 249.509,303.955 241.831 C 305.795 236.596,308.351 234.733,311.746 236.152 M308.854 238.541 C 307.955 238.942,306.454 241.722,305.866 244.076 C 305.022 247.452,308.979 248.060,310.762 244.827 C 313.090 240.608,312.032 237.123,308.854 238.541 M323.515 241.196 C 326.717 242.649,327.079 246.173,324.511 250.892 C 320.533 258.202,312.542 253.758,315.621 245.947 C 317.580 240.976,319.924 239.566,323.515 241.196 M319.669 243.717 C 316.491 247.546,316.816 252.685,320.183 251.840 C 322.422 251.278,324.615 244.932,322.983 243.738 C 322.049 243.055,320.228 243.043,319.669 243.717 M219.400 244.429 C 218.520 244.852,218.250 245.086,218.800 244.949 C 219.933 244.667,222.012 243.625,221.400 243.646 C 221.180 243.653,220.280 244.006,219.400 244.429 M142.153 263.182 C 146.456 264.818,149.752 270.634,148.002 273.504 C 145.103 278.259,138.044 276.191,135.376 269.804 C 133.621 265.604,137.795 261.525,142.153 263.182 M138.629 266.629 C 137.549 267.708,137.925 268.777,140.174 271.026 C 142.524 273.377,143.779 273.749,144.957 272.447 C 147.013 270.175,140.797 264.460,138.629 266.629 M350.981 274.037 C 350.629 274.718,350.412 275.345,350.499 275.432 C 350.586 275.519,350.956 274.962,351.322 274.195 C 352.144 272.470,351.859 272.338,350.981 274.037 M55.200 275.753 C 55.200 276.182,56.390 278.400,56.621 278.400 C 56.731 278.400,56.523 277.815,56.159 277.100 C 55.417 275.640,55.200 275.336,55.200 275.753 M58.200 282.000 C 58.541 282.660,58.911 283.200,59.021 283.200 C 59.131 283.200,58.941 282.660,58.600 282.000 C 58.259 281.340,57.889 280.800,57.779 280.800 C 57.669 280.800,57.859 281.340,58.200 282.000 M250.800 282.689 C 250.800 282.921,251.171 283.536,251.624 284.056 L 252.447 285.000 251.745 283.800 C 250.820 282.221,250.800 282.197,250.800 282.689 M257.524 284.600 C 257.726 285.040,257.992 285.670,258.114 286.000 C 258.307 286.518,258.341 286.515,258.368 285.976 C 258.386 285.634,258.120 285.004,257.778 284.576 C 257.166 283.812,257.162 283.813,257.524 284.600 M248.600 288.000 C 249.040 288.189,249.760 288.338,250.200 288.332 C 250.843 288.323,250.804 288.257,250.000 288.000 C 248.632 287.562,247.581 287.562,248.600 288.000 M243.549 289.000 C 243.765 289.440,244.234 290.160,244.593 290.600 L 245.244 291.400 244.851 290.600 C 244.635 290.160,244.166 289.440,243.807 289.000 L 243.156 288.200 243.549 289.000 M245.549 292.200 C 245.765 292.640,246.234 293.360,246.593 293.800 L 247.244 294.600 246.851 293.800 C 246.635 293.360,246.166 292.640,245.807 292.200 L 245.156 291.400 245.549 292.200 M249.237 293.668 C 249.622 294.388,249.577 294.628,248.974 295.068 C 248.574 295.361,248.439 295.600,248.675 295.600 C 249.555 295.600,250.080 294.496,249.614 293.626 C 249.371 293.172,249.082 292.800,248.972 292.800 C 248.862 292.800,248.981 293.191,249.237 293.668 M258.779 294.736 C 258.143 295.252,258.013 295.561,258.345 295.766 C 258.606 295.927,258.770 295.879,258.710 295.658 C 258.649 295.437,258.960 294.979,259.400 294.641 C 259.840 294.302,260.085 294.020,259.944 294.013 C 259.804 294.006,259.279 294.331,258.779 294.736 M251.421 296.377 C 251.034 296.804,250.812 297.389,250.927 297.677 C 251.072 298.038,251.147 297.998,251.168 297.549 C 251.186 297.191,251.476 296.669,251.813 296.390 C 252.756 295.607,253.622 297.004,253.337 298.850 C 253.214 299.647,253.268 300.394,253.457 300.511 C 253.993 300.840,253.844 297.506,253.278 296.500 C 252.658 295.398,252.326 295.376,251.421 296.377 M55.790 297.500 C 56.410 298.779,56.800 299.144,56.800 298.444 C 56.800 298.249,56.431 297.664,55.980 297.144 L 55.160 296.200 55.790 297.500 M57.462 298.300 C 57.360 298.465,58.322 298.600,59.600 298.600 C 60.878 298.600,61.840 298.465,61.738 298.300 C 61.636 298.135,60.674 298.000,59.600 298.000 C 58.526 298.000,57.564 298.135,57.462 298.300 M63.878 300.006 C 64.362 300.556,65.030 301.634,65.363 302.403 C 65.696 303.171,65.976 303.566,65.984 303.280 C 66.009 302.449,64.962 300.666,63.941 299.802 L 63.000 299.006 63.878 300.006 M251.554 301.869 C 252.354 303.444,253.981 304.404,255.754 304.347 L 257.400 304.293 255.435 304.021 C 253.869 303.804,253.230 303.469,252.291 302.374 C 251.643 301.618,251.311 301.391,251.554 301.869 M264.046 302.363 C 263.705 302.579,264.242 302.641,265.446 302.524 C 268.155 302.260,268.533 302.068,266.400 302.038 C 265.410 302.024,264.351 302.170,264.046 302.363 M269.446 303.581 C 269.912 304.142,270.492 304.960,270.734 305.400 C 270.977 305.840,271.181 305.972,271.188 305.694 C 271.195 305.416,270.615 304.598,269.900 303.876 C 269.185 303.154,268.981 303.021,269.446 303.581 M261.414 307.241 C 259.877 308.591,259.628 309.782,260.622 311.024 C 261.223 311.774,261.230 311.770,260.822 310.926 C 260.090 309.411,260.355 308.495,261.891 307.229 C 262.711 306.553,263.258 306.000,263.105 306.000 C 262.953 306.000,262.192 306.559,261.414 307.241 M348.196 306.949 C 347.658 307.771,347.339 307.872,345.835 307.703 C 344.878 307.595,343.817 307.663,343.476 307.853 C 343.074 308.078,343.666 308.188,345.161 308.165 C 347.690 308.127,348.192 307.936,348.812 306.778 C 349.399 305.681,348.944 305.808,348.196 306.949 M64.615 308.233 C 63.956 309.239,63.958 309.356,64.658 310.655 C 65.062 311.406,65.458 311.826,65.538 311.587 C 65.617 311.349,65.370 310.809,64.988 310.387 C 64.333 309.663,64.332 309.563,64.979 308.576 C 65.356 308.001,65.584 307.451,65.486 307.353 C 65.388 307.255,64.997 307.651,64.615 308.233 M257.293 309.200 C 257.293 309.970,257.375 310.285,257.476 309.900 C 257.576 309.515,257.576 308.885,257.476 308.500 C 257.375 308.115,257.293 308.430,257.293 309.200 M339.188 311.622 C 338.946 312.074,338.807 312.622,338.880 312.839 C 338.952 313.057,339.218 312.687,339.471 312.017 C 339.997 310.625,339.839 310.405,339.188 311.622 M257.899 311.805 C 258.377 312.694,260.341 314.630,260.498 314.368 C 260.554 314.276,259.896 313.482,259.035 312.605 C 258.175 311.728,257.663 311.368,257.899 311.805 M262.400 311.600 C 261.576 311.864,261.541 311.926,262.200 311.954 C 262.640 311.973,263.270 311.813,263.600 311.600 C 264.301 311.147,263.814 311.147,262.400 311.600 M80.000 314.525 C 80.000 314.594,80.585 315.179,81.300 315.825 L 82.600 317.000 81.425 315.700 C 80.330 314.488,80.000 314.216,80.000 314.525 M91.594 320.100 C 94.561 323.125,97.036 325.600,97.094 325.600 C 97.381 325.600,96.809 325.006,91.700 319.994 L 86.200 314.600 91.594 320.100 M318.793 320.300 L 314.200 325.000 318.900 320.407 C 323.266 316.140,323.782 315.600,323.493 315.600 C 323.435 315.600,321.320 317.715,318.793 320.300 M327.375 317.700 L 326.200 319.000 327.500 317.825 C 328.215 317.179,328.800 316.594,328.800 316.525 C 328.800 316.216,328.470 316.488,327.375 317.700 M339.379 317.358 C 339.520 317.801,339.339 318.425,338.945 318.860 C 338.575 319.270,338.376 319.709,338.504 319.837 C 339.053 320.386,340.071 318.054,339.602 317.322 C 339.165 316.640,339.153 316.642,339.379 317.358 M88.600 323.600 C 91.454 326.460,93.878 328.800,93.988 328.800 C 94.098 328.800,91.854 326.460,89.000 323.600 C 86.146 320.740,83.722 318.400,83.612 318.400 C 83.502 318.400,85.746 320.740,88.600 323.600 M321.792 323.700 L 318.200 327.400 321.900 323.808 C 323.935 321.833,325.600 320.168,325.600 320.108 C 325.600 319.818,325.128 320.264,321.792 323.700 M314.975 330.100 L 313.800 331.400 315.100 330.225 C 315.815 329.579,316.400 328.994,316.400 328.925 C 316.400 328.616,316.070 328.888,314.975 330.100 M130.800 354.179 C 130.800 354.289,131.340 354.659,132.000 355.000 C 132.660 355.341,133.200 355.531,133.200 355.421 C 133.200 355.311,132.660 354.941,132.000 354.600 C 131.340 354.259,130.800 354.069,130.800 354.179 M141.254 354.187 C 141.590 354.523,144.400 355.616,144.400 355.411 C 144.400 355.301,143.748 354.938,142.951 354.605 C 141.475 353.989,140.918 353.851,141.254 354.187 M173.600 364.400 C 174.150 364.576,175.050 364.717,175.600 364.713 C 176.498 364.706,176.478 364.674,175.400 364.400 C 173.708 363.969,172.256 363.969,173.600 364.400 M185.300 366.276 C 185.685 366.376,186.315 366.376,186.700 366.276 C 187.085 366.175,186.770 366.093,186.000 366.093 C 185.230 366.093,184.915 366.175,185.300 366.276 M188.705 366.683 C 189.202 366.779,189.922 366.775,190.305 366.675 C 190.687 366.575,190.280 366.496,189.400 366.501 C 188.520 366.505,188.207 366.587,188.705 366.683 M220.900 366.676 C 221.285 366.776,221.915 366.776,222.300 366.676 C 222.685 366.575,222.370 366.493,221.600 366.493 C 220.830 366.493,220.515 366.575,220.900 366.676 M192.305 367.083 C 192.802 367.179,193.522 367.175,193.905 367.075 C 194.287 366.975,193.880 366.896,193.000 366.901 C 192.120 366.905,191.807 366.987,192.305 367.083 M216.705 367.083 C 217.202 367.179,217.922 367.175,218.305 367.075 C 218.687 366.975,218.280 366.896,217.400 366.901 C 216.520 366.905,216.207 366.987,216.705 367.083 M201.900 367.498 C 203.715 367.572,206.685 367.572,208.500 367.498 C 210.315 367.423,208.830 367.363,205.200 367.363 C 201.570 367.363,200.085 367.423,201.900 367.498 M187.300 371.076 C 187.685 371.176,188.315 371.176,188.700 371.076 C 189.085 370.975,188.770 370.893,188.000 370.893 C 187.230 370.893,186.915 370.975,187.300 371.076 M221.700 371.076 C 222.085 371.176,222.715 371.176,223.100 371.076 C 223.485 370.975,223.170 370.893,222.400 370.893 C 221.630 370.893,221.315 370.975,221.700 371.076 M191.300 371.487 C 191.905 371.578,192.895 371.578,193.500 371.487 C 194.105 371.395,193.610 371.320,192.400 371.320 C 191.190 371.320,190.695 371.395,191.300 371.487 M216.900 371.487 C 217.505 371.578,218.495 371.578,219.100 371.487 C 219.705 371.395,219.210 371.320,218.000 371.320 C 216.790 371.320,216.295 371.395,216.900 371.487 M197.511 371.893 C 198.451 371.978,199.891 371.977,200.711 371.891 C 201.530 371.805,200.760 371.736,199.000 371.737 C 197.240 371.739,196.570 371.809,197.511 371.893 M209.911 371.893 C 210.851 371.978,212.291 371.977,213.111 371.891 C 213.930 371.805,213.160 371.736,211.400 371.737 C 209.640 371.739,208.970 371.809,209.911 371.893 M199.741 376.797 C 199.268 376.988,198.752 377.355,198.593 377.612 C 198.396 377.930,198.607 377.912,199.252 377.555 C 199.773 377.266,201.100 376.914,202.200 376.772 L 204.200 376.513 202.400 376.482 C 201.410 376.465,200.213 376.607,199.741 376.797 M205.432 377.555 C 206.110 377.968,207.065 378.822,207.554 379.453 C 208.110 380.170,208.289 380.278,208.031 379.743 C 207.542 378.728,205.338 376.799,204.669 376.801 C 204.411 376.802,204.755 377.141,205.432 377.555 M196.747 379.400 C 196.091 380.511,195.661 380.807,194.660 380.832 L 193.400 380.863 194.535 381.277 C 195.166 381.506,195.804 381.537,195.971 381.345 C 196.609 380.614,198.053 378.000,197.819 378.000 C 197.684 378.000,197.201 378.630,196.747 379.400 M208.752 381.312 C 208.945 381.505,209.619 381.598,210.251 381.519 C 211.309 381.387,211.281 381.359,209.900 381.168 C 209.040 381.049,208.550 381.110,208.752 381.312 " stroke="none" fill="#2c63bf" fill-rule="evenodd"></path><path id="path3" d="M188.400 32.839 C 186.310 33.020,183.880 33.349,183.000 33.571 C 182.120 33.792,179.150 34.258,176.400 34.608 C 173.650 34.957,170.770 35.425,170.000 35.648 C 169.230 35.871,166.710 36.482,164.400 37.007 C 158.945 38.245,153.379 39.824,151.762 40.591 C 151.056 40.926,150.211 41.200,149.882 41.200 C 149.554 41.200,149.182 41.470,149.055 41.800 C 148.929 42.130,148.562 42.400,148.241 42.400 C 147.370 42.400,146.400 43.536,146.400 44.557 C 146.400 48.393,139.040 50.902,135.929 48.127 C 135.403 47.658,134.967 47.615,133.929 47.927 C 129.012 49.405,128.000 49.762,128.000 50.022 C 128.000 50.182,127.298 50.594,126.441 50.937 C 125.584 51.280,123.379 52.407,121.541 53.442 C 119.703 54.477,117.570 55.654,116.800 56.059 C 116.030 56.463,115.130 56.980,114.800 57.208 C 114.470 57.436,112.940 58.411,111.400 59.374 C 109.860 60.338,108.318 61.368,107.974 61.663 C 107.629 61.958,106.729 62.545,105.974 62.967 C 105.218 63.389,104.170 64.154,103.645 64.667 C 103.120 65.180,102.447 65.600,102.149 65.600 C 101.851 65.600,101.382 65.960,101.107 66.400 C 100.832 66.840,100.444 67.200,100.245 67.200 C 99.705 67.200,96.432 69.928,94.554 71.942 C 93.055 73.551,92.936 73.831,93.221 75.093 C 94.287 79.821,89.402 84.064,84.758 82.445 C 83.620 82.048,83.347 82.099,82.545 82.852 C 82.042 83.325,81.222 83.915,80.723 84.164 C 80.224 84.412,79.630 84.972,79.404 85.408 C 79.177 85.844,77.913 87.300,76.596 88.644 C 73.482 91.820,71.474 94.147,67.829 98.800 C 66.193 100.890,64.585 102.901,64.257 103.270 C 63.929 103.638,63.449 104.336,63.189 104.820 C 62.775 105.594,60.674 108.557,59.614 109.863 C 59.407 110.117,58.291 111.917,57.134 113.863 C 55.977 115.808,54.919 117.490,54.783 117.600 C 54.647 117.710,54.100 118.700,53.568 119.800 C 53.036 120.900,52.486 121.890,52.347 122.000 C 52.207 122.110,50.980 124.360,49.621 127.000 C 46.586 132.895,46.281 134.704,47.996 136.656 C 51.569 140.726,48.304 147.600,42.797 147.600 C 41.941 147.600,41.463 147.909,40.936 148.800 C 40.546 149.460,40.106 150.000,39.958 150.000 C 39.810 150.000,39.365 151.215,38.969 152.700 C 38.573 154.185,38.115 155.493,37.952 155.607 C 37.788 155.721,37.247 157.611,36.749 159.807 C 36.251 162.003,35.717 163.890,35.563 164.000 C 35.410 164.110,34.870 166.630,34.365 169.600 C 33.859 172.570,33.325 175.090,33.176 175.200 C 32.811 175.471,31.660 184.803,31.339 190.100 C 31.196 192.465,30.926 194.400,30.739 194.400 C 30.245 194.400,30.305 219.894,30.800 220.200 C 31.020 220.336,31.202 220.932,31.205 221.524 C 31.216 223.685,31.590 224.222,33.463 224.776 C 38.346 226.217,39.231 233.403,34.864 236.160 C 33.481 237.033,33.362 237.247,33.487 238.657 C 33.764 241.780,35.343 250.000,35.666 250.000 C 35.850 250.000,36.000 250.282,36.000 250.626 C 36.000 251.670,37.710 258.586,38.021 258.800 C 38.180 258.910,38.719 260.530,39.219 262.400 C 39.718 264.270,40.252 265.890,40.405 266.000 C 40.558 266.110,41.085 267.505,41.575 269.100 C 42.065 270.695,42.587 272.001,42.733 272.002 C 42.880 272.003,43.430 273.353,43.955 275.002 C 44.480 276.651,45.053 278.000,45.228 278.000 C 45.403 278.000,45.659 278.405,45.796 278.900 C 46.181 280.283,47.345 282.976,47.657 283.204 C 47.810 283.316,48.325 284.394,48.800 285.600 C 49.275 286.806,49.797 287.884,49.960 287.996 C 50.122 288.108,50.680 289.100,51.200 290.200 C 51.720 291.300,52.262 292.290,52.405 292.400 C 52.548 292.510,53.087 293.455,53.603 294.500 C 54.119 295.545,54.783 296.400,55.077 296.400 C 55.371 296.400,55.949 296.955,56.362 297.633 C 56.807 298.365,57.221 298.690,57.379 298.433 C 57.527 298.195,58.450 298.000,59.432 298.000 C 64.478 298.000,67.630 303.570,65.176 308.148 C 64.403 309.591,64.394 309.730,65.025 310.428 C 65.395 310.836,65.602 311.418,65.486 311.720 C 65.234 312.376,68.684 316.939,72.300 320.733 C 73.235 321.714,74.000 322.662,74.000 322.840 C 74.000 323.300,88.209 337.459,89.517 338.302 C 90.113 338.686,91.021 339.495,91.536 340.100 C 92.050 340.705,92.621 341.200,92.805 341.200 C 93.103 341.200,93.826 341.814,96.614 344.435 C 97.062 344.856,97.570 345.200,97.742 345.200 C 97.915 345.200,98.910 345.920,99.954 346.800 C 100.998 347.680,102.065 348.400,102.326 348.400 C 102.587 348.400,102.800 348.565,102.800 348.767 C 102.800 348.969,103.475 349.545,104.300 350.045 C 105.125 350.546,105.944 351.191,106.120 351.478 C 106.296 351.765,106.632 352.000,106.866 352.000 C 107.101 352.000,108.151 352.630,109.200 353.400 C 110.249 354.170,111.251 354.800,111.427 354.800 C 111.603 354.800,112.521 355.175,113.467 355.632 L 115.186 356.465 116.412 355.592 C 120.411 352.744,126.047 355.757,126.122 360.783 C 126.149 362.567,126.265 362.813,127.276 363.232 C 127.894 363.488,128.400 363.833,128.400 364.000 C 128.400 364.167,128.985 364.540,129.700 364.829 C 130.415 365.118,131.090 365.456,131.200 365.581 C 131.502 365.923,135.744 367.600,136.308 367.600 C 136.578 367.600,136.800 367.765,136.800 367.967 C 136.800 368.169,138.015 368.736,139.500 369.227 C 140.985 369.717,142.290 370.238,142.400 370.384 C 142.596 370.644,145.915 371.719,148.100 372.230 C 148.705 372.371,149.200 372.613,149.200 372.768 C 149.200 372.923,150.865 373.471,152.900 373.987 C 154.935 374.502,156.793 375.071,157.030 375.252 C 157.266 375.433,158.796 375.857,160.430 376.193 C 162.063 376.529,163.760 376.981,164.200 377.196 C 165.151 377.661,173.652 379.200,175.270 379.200 C 175.891 379.200,176.400 379.354,176.400 379.542 C 176.400 380.195,192.717 381.730,193.380 381.139 C 193.589 380.953,194.259 380.800,194.870 380.800 C 195.675 380.800,196.136 380.498,196.551 379.700 C 198.786 375.396,205.114 375.399,207.950 379.705 C 208.836 381.050,209.077 381.166,211.542 381.430 C 215.362 381.839,232.127 380.497,234.200 379.616 C 234.640 379.429,237.420 378.892,240.378 378.422 C 243.335 377.953,245.945 377.424,246.178 377.247 C 246.410 377.069,248.130 376.603,250.000 376.211 C 251.870 375.818,253.490 375.381,253.600 375.240 C 253.710 375.098,255.420 374.564,257.400 374.053 C 259.379 373.543,261.089 372.995,261.200 372.836 C 261.310 372.677,262.885 372.129,264.700 371.618 C 266.515 371.107,268.000 370.573,268.000 370.432 C 268.000 370.290,268.855 369.928,269.900 369.626 C 270.945 369.324,272.970 368.543,274.400 367.890 C 280.577 365.070,283.016 363.862,283.246 363.507 C 283.381 363.298,283.921 362.914,284.446 362.654 C 285.215 362.271,285.441 361.779,285.610 360.106 C 286.090 355.349,290.743 352.757,294.866 354.949 C 296.420 355.776,296.748 355.827,297.402 355.349 C 297.815 355.047,298.465 354.800,298.846 354.800 C 299.227 354.800,300.073 354.350,300.727 353.800 C 301.381 353.250,302.088 352.800,302.299 352.800 C 302.510 352.800,303.135 352.395,303.686 351.900 C 304.924 350.789,305.928 350.116,307.100 349.609 C 307.595 349.395,308.000 349.068,308.000 348.884 C 308.000 348.699,308.701 348.153,309.558 347.672 C 310.415 347.190,311.219 346.527,311.345 346.198 C 311.472 345.869,311.837 345.600,312.158 345.600 C 312.479 345.600,313.073 345.179,313.478 344.664 C 313.883 344.150,314.410 343.655,314.651 343.564 C 316.857 342.734,336.800 323.687,336.800 322.410 C 336.800 322.188,337.160 321.782,337.600 321.507 C 338.040 321.232,338.400 320.660,338.400 320.235 C 338.400 319.811,338.675 319.159,339.011 318.787 C 339.487 318.262,339.531 317.871,339.211 317.030 C 337.441 312.373,341.146 307.174,345.858 307.705 C 347.337 307.872,347.660 307.768,348.196 306.949 C 348.539 306.427,349.077 306.000,349.392 306.000 C 349.708 306.000,350.460 305.145,351.064 304.100 C 351.668 303.055,352.274 302.110,352.411 302.000 C 352.548 301.890,353.096 300.990,353.630 300.000 C 354.163 299.010,354.719 298.109,354.864 297.999 C 355.232 297.718,356.980 294.611,358.184 292.100 C 358.737 290.945,359.330 290.000,359.502 290.000 C 359.673 290.000,360.243 288.920,360.767 287.600 C 361.291 286.280,361.838 285.200,361.982 285.200 C 362.126 285.200,362.684 284.031,363.222 282.603 C 363.760 281.174,364.307 280.004,364.437 280.003 C 364.568 280.001,365.104 278.740,365.628 277.200 C 366.153 275.660,366.710 274.400,366.866 274.400 C 367.023 274.400,367.556 273.050,368.052 271.400 C 368.548 269.750,369.074 268.400,369.221 268.400 C 369.368 268.400,369.907 266.915,370.418 265.100 C 370.929 263.285,371.472 261.710,371.625 261.600 C 371.779 261.490,372.306 259.790,372.797 257.822 C 373.289 255.854,373.851 253.964,374.047 253.622 C 374.242 253.280,374.768 251.380,375.215 249.400 C 375.662 247.420,376.276 244.720,376.580 243.400 C 377.584 239.044,377.371 236.814,375.815 235.388 C 372.423 232.281,373.298 226.995,377.563 224.819 C 378.943 224.115,379.052 223.914,379.512 221.229 C 380.601 214.879,379.791 185.359,378.409 181.031 C 378.193 180.354,377.637 177.298,377.174 174.240 C 376.710 171.182,376.176 168.392,375.987 168.040 C 375.797 167.688,375.350 166.005,374.994 164.300 C 374.637 162.595,374.200 161.200,374.021 161.200 C 373.843 161.200,373.482 160.681,373.219 160.046 C 372.847 159.148,372.407 158.839,371.231 158.651 C 366.533 157.900,364.218 151.658,367.261 147.944 C 368.410 146.542,368.638 146.010,368.327 145.456 C 368.111 145.069,368.039 144.475,368.169 144.136 C 368.431 143.453,367.189 139.600,366.706 139.600 C 366.538 139.600,366.400 139.378,366.400 139.108 C 366.400 138.541,364.722 134.300,364.379 134.000 C 364.253 133.890,363.736 132.765,363.229 131.500 C 362.722 130.235,362.192 129.200,362.052 129.200 C 361.911 129.200,361.377 128.120,360.865 126.800 C 360.353 125.480,359.807 124.400,359.652 124.400 C 359.496 124.400,358.933 123.410,358.400 122.200 C 357.867 120.990,357.294 120.000,357.127 120.000 C 356.959 120.000,356.435 119.100,355.962 118.000 C 355.489 116.900,354.973 116.000,354.815 116.000 C 354.657 116.000,354.303 115.505,354.028 114.900 C 353.752 114.295,352.689 112.567,351.664 111.061 C 350.639 109.554,349.620 108.035,349.400 107.685 C 345.788 101.936,343.518 99.919,341.319 100.506 C 336.262 101.856,331.715 96.006,334.155 91.288 L 334.796 90.047 332.461 87.124 C 330.373 84.509,323.204 77.491,320.231 75.153 C 318.871 74.084,317.362 72.748,315.985 71.396 C 315.427 70.848,314.762 70.400,314.508 70.400 C 314.253 70.400,313.810 70.082,313.523 69.693 C 313.235 69.304,312.550 68.695,312.000 68.339 C 311.450 67.982,310.478 67.236,309.839 66.681 C 309.201 66.125,308.211 65.429,307.639 65.135 C 307.068 64.841,306.365 64.285,306.077 63.900 C 305.790 63.515,305.329 63.200,305.053 63.200 C 304.777 63.200,304.202 62.879,303.775 62.487 C 303.349 62.095,302.280 61.340,301.400 60.808 C 300.520 60.277,299.710 59.722,299.600 59.575 C 299.490 59.428,298.590 58.899,297.600 58.400 C 296.610 57.901,295.710 57.361,295.600 57.200 C 295.490 57.039,294.590 56.499,293.600 56.000 C 292.610 55.501,291.710 54.957,291.600 54.791 C 291.313 54.359,288.314 53.153,288.088 53.379 C 287.984 53.483,287.421 53.321,286.836 53.019 C 285.872 52.520,285.695 52.552,284.914 53.363 C 281.303 57.115,274.460 54.486,274.077 49.200 C 273.924 47.076,273.792 46.763,272.966 46.556 C 272.450 46.426,271.928 46.004,271.806 45.618 C 271.602 44.977,268.311 43.600,266.983 43.600 C 266.694 43.600,266.219 43.366,265.929 43.080 C 265.638 42.793,263.870 42.130,262.000 41.606 C 260.130 41.082,258.510 40.530,258.400 40.380 C 258.290 40.230,256.940 39.802,255.400 39.429 C 253.860 39.055,251.880 38.487,251.000 38.166 C 250.120 37.845,247.690 37.229,245.600 36.798 C 243.510 36.367,240.630 35.754,239.200 35.436 C 237.770 35.118,234.530 34.573,232.000 34.225 C 229.470 33.876,226.320 33.409,225.000 33.186 C 220.766 32.472,216.268 33.036,215.685 34.354 C 213.809 38.591,206.950 38.566,204.622 34.314 C 203.541 32.341,198.960 31.924,188.400 32.839 M221.436 43.001 C 266.153 47.223,310.732 72.010,336.400 106.923 C 337.170 107.971,338.313 109.496,338.940 110.314 C 377.502 160.572,380.484 239.984,345.823 293.600 C 338.756 304.532,335.199 309.226,327.180 318.196 C 281.345 369.475,203.025 386.525,140.600 358.813 C 139.720 358.423,137.470 357.421,135.600 356.586 C 101.883 341.544,67.873 307.127,54.781 274.800 C 54.380 273.810,53.398 271.470,52.598 269.600 C 35.220 228.953,36.431 178.975,55.805 137.260 C 79.782 85.635,132.046 48.227,187.200 43.216 C 189.730 42.986,192.430 42.737,193.200 42.663 C 197.536 42.245,215.741 42.463,221.436 43.001 M227.454 48.712 C 227.329 48.914,226.853 51.941,226.396 55.440 C 225.939 58.938,225.220 64.050,224.798 66.800 C 224.377 69.550,223.387 76.480,222.598 82.200 C 221.810 87.920,220.811 94.940,220.380 97.800 C 219.948 100.660,219.245 105.610,218.818 108.800 C 218.391 111.990,217.845 115.860,217.606 117.400 C 217.367 118.940,216.010 128.480,214.591 138.600 C 213.171 148.720,211.915 157.554,211.800 158.231 C 211.648 159.119,211.822 159.732,212.425 160.431 C 213.391 161.552,216.000 165.645,216.000 166.040 C 216.000 166.187,216.315 166.403,216.700 166.520 C 222.986 168.439,228.824 171.954,233.545 176.663 C 237.108 180.216,236.055 180.372,241.373 175.500 C 246.306 170.981,250.636 167.056,257.600 160.790 C 260.130 158.513,264.087 154.929,266.393 152.825 C 268.699 150.721,271.309 148.347,272.193 147.549 C 273.077 146.751,277.859 142.431,282.819 137.949 C 287.780 133.467,295.520 126.477,300.019 122.415 C 304.519 118.353,308.290 114.933,308.400 114.814 C 308.510 114.696,311.258 112.194,314.506 109.255 C 317.754 106.315,321.340 103.053,322.475 102.004 L 324.537 100.098 319.155 94.749 C 316.195 91.807,312.719 88.500,311.430 87.400 C 310.142 86.300,308.528 84.905,307.844 84.299 C 306.526 83.133,300.395 78.337,298.530 77.015 C 295.747 75.040,289.768 71.091,288.454 70.359 C 287.654 69.914,286.190 69.078,285.200 68.502 C 280.064 65.514,277.208 64.050,271.600 61.528 C 270.170 60.885,268.681 60.184,268.291 59.971 C 267.901 59.757,266.551 59.210,265.291 58.756 C 264.031 58.301,262.460 57.693,261.800 57.403 C 256.137 54.919,241.241 50.892,232.200 49.402 C 230.440 49.112,228.703 48.755,228.340 48.610 C 227.978 48.464,227.579 48.511,227.454 48.712 M120.606 71.191 C 120.473 71.406,121.691 73.701,123.313 76.291 C 124.935 78.881,127.941 83.700,129.993 87.000 C 132.045 90.300,134.371 94.028,135.162 95.285 C 138.576 100.712,140.479 103.756,143.982 109.400 C 146.031 112.700,148.115 116.030,148.613 116.800 C 149.112 117.570,156.127 128.820,164.203 141.800 C 172.278 154.780,179.297 166.030,179.800 166.800 C 180.304 167.570,181.187 168.965,181.763 169.900 C 182.798 171.580,183.942 172.272,183.418 170.900 C 183.271 170.515,181.571 167.680,179.641 164.600 C 177.710 161.520,173.831 155.310,171.020 150.800 C 168.209 146.290,165.502 141.970,165.003 141.200 C 164.504 140.430,159.735 132.780,154.405 124.200 C 149.075 115.620,144.300 107.970,143.794 107.200 C 143.287 106.430,138.965 99.500,134.190 91.800 C 129.414 84.100,124.929 76.900,124.223 75.800 C 123.518 74.700,122.534 73.125,122.038 72.300 C 121.059 70.675,120.968 70.604,120.606 71.191 M99.743 86.551 C 96.041 89.887,94.203 91.687,94.849 91.344 C 95.561 90.967,102.183 84.800,101.876 84.800 C 101.772 84.800,100.812 85.588,99.743 86.551 M267.004 89.644 C 267.992 90.108,268.800 90.648,268.800 90.844 C 268.800 91.040,269.055 91.200,269.366 91.200 C 271.018 91.200,273.027 95.415,272.406 97.579 C 270.902 102.825,264.243 102.800,259.539 97.532 C 255.095 92.554,260.667 86.665,267.004 89.644 M91.586 94.300 L 89.400 96.600 91.700 94.414 C 92.965 93.211,94.000 92.176,94.000 92.114 C 94.000 91.817,93.618 92.163,91.586 94.300 M261.829 92.629 C 260.576 93.881,261.160 94.871,264.391 96.974 C 267.313 98.876,269.226 98.555,269.187 96.169 C 269.153 94.072,263.233 91.224,261.829 92.629 M87.923 97.900 C 87.160 98.789,86.695 99.600,86.949 99.600 C 87.057 99.600,87.530 99.060,88.000 98.400 C 88.932 97.091,88.884 96.781,87.923 97.900 M261.000 100.530 C 266.087 103.713,267.256 107.047,264.459 110.397 C 262.765 112.426,255.200 112.114,255.200 110.015 C 255.200 109.857,254.757 109.527,254.216 109.280 C 251.351 107.975,250.469 103.919,252.456 101.190 C 254.408 98.510,257.401 98.279,261.000 100.530 M255.008 103.444 C 254.332 104.475,254.342 104.507,255.840 106.041 C 259.231 109.514,263.517 109.375,262.159 105.837 C 261.844 105.017,257.530 102.400,256.494 102.400 C 256.053 102.400,255.384 102.870,255.008 103.444 M251.400 109.711 C 251.785 110.015,257.430 113.690,259.697 115.112 C 261.040 115.954,261.057 116.274,259.840 117.795 L 258.883 118.990 256.742 117.554 C 250.201 113.168,249.425 112.759,248.929 113.432 C 247.836 114.920,245.299 112.941,246.163 111.274 C 247.855 108.009,248.870 107.706,251.400 109.711 M251.385 117.819 C 252.195 118.432,252.191 118.469,251.021 121.261 C 250.823 121.735,251.091 122.127,251.972 122.647 C 253.276 123.418,253.453 123.979,252.786 125.226 C 252.298 126.139,250.916 126.214,249.824 125.387 C 248.774 124.593,248.734 124.608,247.652 126.197 C 246.705 127.589,246.705 127.589,245.552 126.908 C 244.183 126.099,244.114 125.489,245.233 124.067 C 246.034 123.049,246.038 122.990,245.333 122.522 C 243.030 120.992,243.026 120.986,243.566 119.682 C 244.254 118.020,244.962 117.851,246.347 119.017 C 247.821 120.257,247.763 120.267,248.747 118.600 C 249.648 117.073,250.187 116.913,251.385 117.819 M53.510 155.687 C 43.087 187.442,42.377 219.990,51.413 251.800 C 52.163 254.440,53.513 258.580,54.413 261.000 C 55.313 263.420,56.410 266.418,56.849 267.663 C 63.917 287.675,87.356 318.944,105.225 332.200 C 105.819 332.640,107.990 334.274,110.052 335.831 C 118.920 342.528,132.102 350.209,140.900 353.804 C 144.288 355.189,143.703 354.679,139.484 352.569 C 133.403 349.530,133.469 350.996,138.936 340.281 C 141.541 335.177,147.278 323.890,151.686 315.200 C 156.093 306.510,160.916 297.060,162.403 294.200 C 163.890 291.340,167.849 283.600,171.199 277.000 C 174.550 270.400,179.701 260.302,182.646 254.559 C 187.837 244.435,188.475 242.975,187.572 243.276 C 187.145 243.418,184.997 247.526,171.716 273.600 C 155.780 304.887,144.000 328.008,138.905 338.000 C 135.932 343.830,133.358 348.755,133.185 348.945 C 132.403 349.802,115.985 340.200,110.026 335.400 C 109.206 334.740,107.927 333.750,107.184 333.200 C 95.129 324.284,79.509 306.366,69.525 290.000 C 64.294 281.424,58.176 269.634,58.712 269.162 C 58.871 269.023,62.420 267.510,66.600 265.800 C 70.780 264.089,75.370 262.190,76.800 261.579 C 78.230 260.967,83.630 258.736,88.800 256.620 C 93.970 254.504,99.460 252.249,101.000 251.610 C 102.540 250.971,105.960 249.550,108.600 248.453 C 114.396 246.044,141.653 234.794,147.800 232.273 C 150.220 231.281,155.080 229.273,158.600 227.811 C 162.120 226.349,165.675 224.874,166.500 224.533 C 167.325 224.192,168.000 223.753,168.000 223.557 C 168.000 222.988,167.512 223.114,163.750 224.650 C 159.922 226.214,158.919 226.628,149.800 230.407 C 146.500 231.774,142.810 233.298,141.600 233.794 C 127.543 239.550,105.992 248.445,100.400 250.798 C 97.870 251.862,93.820 253.543,91.400 254.532 C 87.278 256.217,79.143 259.563,71.800 262.594 C 70.040 263.321,67.250 264.484,65.600 265.178 C 57.400 268.629,58.181 268.712,56.389 264.200 C 44.488 234.237,42.803 201.849,51.261 165.600 C 52.841 158.826,52.303 159.202,57.882 160.973 C 60.477 161.797,64.310 163.015,66.400 163.679 C 68.490 164.344,71.910 165.426,74.000 166.083 C 76.090 166.741,79.420 167.793,81.400 168.422 C 83.380 169.051,87.070 170.217,89.600 171.015 C 92.130 171.812,95.190 172.796,96.400 173.202 C 97.610 173.609,101.030 174.690,104.000 175.605 C 106.970 176.521,110.390 177.600,111.600 178.003 C 112.810 178.406,116.230 179.492,119.200 180.416 C 122.170 181.340,125.590 182.420,126.800 182.816 C 128.010 183.212,130.710 184.075,132.800 184.733 C 149.169 189.887,164.901 194.873,165.500 195.098 C 165.775 195.201,166.000 195.039,166.000 194.739 C 166.000 194.388,164.022 193.555,160.500 192.421 C 157.475 191.446,152.390 189.809,149.200 188.782 C 146.010 187.754,139.620 185.704,135.000 184.225 C 119.556 179.282,104.268 174.372,97.000 172.021 C 93.040 170.741,86.290 168.579,82.000 167.219 C 77.710 165.858,72.940 164.318,71.400 163.795 C 69.860 163.273,65.155 161.754,60.944 160.420 L 53.287 157.994 54.257 154.938 C 54.791 153.258,55.174 151.723,55.110 151.529 C 55.045 151.334,54.325 153.205,53.510 155.687 M358.000 201.653 C 353.930 201.792,339.260 202.286,325.400 202.750 C 311.540 203.213,294.800 203.788,288.200 204.026 C 281.600 204.264,269.403 204.688,261.095 204.968 C 252.787 205.248,245.869 205.597,245.722 205.745 C 244.932 206.535,247.038 206.669,255.400 206.362 C 260.460 206.177,277.560 205.662,293.400 205.218 C 332.165 204.132,365.371 203.098,365.532 202.972 C 365.605 202.915,365.605 202.538,365.532 202.134 C 365.408 201.442,364.975 201.415,358.000 201.653 M364.897 214.294 C 363.510 235.495,357.760 259.692,350.803 273.600 C 350.418 274.370,349.981 275.450,349.832 276.000 C 349.684 276.550,350.291 275.513,351.181 273.696 C 352.071 271.878,352.801 270.258,352.802 270.096 C 352.804 269.933,353.091 269.260,353.440 268.600 C 359.652 256.859,366.169 225.172,365.533 209.800 C 365.425 207.198,365.306 208.038,364.897 214.294 M234.350 234.674 C 228.135 241.002,218.172 246.400,212.708 246.400 C 211.345 246.400,211.333 246.630,212.414 251.861 C 214.802 263.408,215.731 267.936,216.792 273.200 C 217.435 276.390,219.050 284.265,220.381 290.700 C 226.478 320.187,227.699 326.110,228.607 330.600 C 229.512 335.079,230.555 340.099,233.672 355.000 C 234.363 358.300,234.944 361.625,234.964 362.389 L 235.000 363.779 231.000 364.468 C 219.960 366.372,197.383 366.927,185.290 365.593 C 183.030 365.344,180.974 365.209,180.722 365.293 C 180.470 365.377,183.939 365.845,188.432 366.333 C 246.846 372.678,304.537 346.099,337.692 297.567 C 340.315 293.727,341.795 291.200,341.421 291.200 C 341.311 291.200,340.947 291.728,340.614 292.374 C 339.332 294.851,331.044 306.000,330.483 306.000 C 330.385 306.000,329.727 305.505,329.019 304.900 C 328.312 304.295,324.980 301.640,321.615 299.000 C 318.250 296.360,312.775 292.037,309.449 289.393 C 300.234 282.070,283.278 268.700,282.064 267.800 C 281.470 267.360,278.747 265.200,276.011 263.000 C 273.276 260.800,270.554 258.640,269.962 258.200 C 268.984 257.473,248.010 240.913,240.150 234.662 L 236.900 232.077 234.350 234.674 M246.100 277.803 C 248.243 281.144,248.347 281.591,247.153 282.337 C 246.171 282.950,246.294 283.063,243.868 279.313 C 241.938 276.329,241.642 275.411,242.500 275.065 C 243.724 274.571,244.316 275.022,246.100 277.803 M347.665 280.217 C 346.995 281.688,347.123 282.002,347.847 280.665 C 348.186 280.040,348.388 279.454,348.296 279.363 C 348.205 279.271,347.921 279.656,347.665 280.217 M255.352 282.154 C 261.966 284.918,257.868 292.161,250.412 290.885 C 247.266 290.346,247.380 290.226,248.868 292.514 C 250.170 294.515,250.000 295.600,248.387 295.600 C 247.611 295.600,243.200 289.021,243.200 287.864 C 243.200 286.795,244.874 286.700,248.298 287.574 C 252.166 288.562,252.879 288.587,254.420 287.790 C 256.452 286.739,255.328 284.051,253.092 284.613 C 252.327 284.805,251.938 284.647,251.445 283.943 C 250.578 282.705,250.620 282.532,251.900 282.065 C 253.422 281.509,253.833 281.520,255.352 282.154 M345.472 284.219 C 344.532 286.189,344.664 286.524,345.647 284.662 C 346.093 283.816,346.387 283.054,346.301 282.967 C 346.214 282.881,345.841 283.444,345.472 284.219 M342.600 289.200 C 342.259 289.860,342.069 290.400,342.179 290.400 C 342.289 290.400,342.659 289.860,343.000 289.200 C 343.341 288.540,343.531 288.000,343.421 288.000 C 343.311 288.000,342.941 288.540,342.600 289.200 M261.932 291.300 C 262.186 291.795,263.191 293.460,264.166 295.000 L 265.939 297.800 264.713 298.399 C 263.581 298.953,263.452 298.941,263.043 298.255 C 260.637 294.218,260.396 293.984,259.349 294.670 L 258.359 295.319 259.670 296.672 C 262.638 299.734,260.047 304.400,255.380 304.400 C 251.783 304.400,249.114 298.450,251.673 296.134 C 252.821 295.095,254.074 296.727,253.744 298.831 C 253.373 301.200,255.163 302.342,257.111 300.977 C 258.723 299.848,258.089 297.200,256.206 297.200 C 255.494 297.200,253.612 294.961,254.061 294.647 C 254.137 294.594,255.280 293.863,256.600 293.022 C 257.920 292.182,259.360 291.258,259.800 290.968 C 260.951 290.211,261.411 290.282,261.932 291.300 M269.647 303.553 C 273.138 307.044,270.396 312.355,264.130 314.241 C 258.519 315.930,254.924 309.500,259.215 305.450 C 263.107 301.777,267.138 301.044,269.647 303.553 M265.075 305.206 C 263.420 305.703,260.400 308.317,260.400 309.253 C 260.400 312.294,263.438 312.274,266.929 309.209 C 268.628 307.717,268.837 306.352,267.511 305.423 C 266.523 304.730,266.629 304.740,265.075 305.206 M178.100 365.076 C 178.485 365.176,179.115 365.176,179.500 365.076 C 179.885 364.975,179.570 364.893,178.800 364.893 C 178.030 364.893,177.715 364.975,178.100 365.076 " stroke="none" fill="#0b2318" fill-rule="evenodd"></path><path id="path4" d="M138.000 33.574 C 134.534 34.356,131.918 36.442,131.390 38.844 C 131.252 39.475,130.972 40.094,130.769 40.219 C 130.289 40.516,130.290 44.605,130.771 45.505 C 130.975 45.887,131.241 46.519,131.362 46.909 C 131.670 47.903,132.717 48.207,134.071 47.696 C 135.048 47.327,135.483 47.408,136.912 48.225 C 140.720 50.402,145.259 48.284,146.227 43.879 C 146.406 43.061,146.876 42.560,147.840 42.158 C 153.082 39.967,144.160 32.184,138.000 33.574 M276.400 39.720 C 275.850 39.976,275.166 40.410,274.880 40.684 C 274.595 40.958,274.055 41.411,273.680 41.691 C 272.969 42.223,271.600 44.459,271.600 45.089 C 271.600 45.290,272.157 45.719,272.838 46.041 C 273.970 46.577,274.082 46.805,274.145 48.694 C 274.320 53.956,280.392 56.711,284.393 53.344 C 285.581 52.345,285.734 52.316,287.226 52.809 C 289.142 53.441,289.102 53.477,289.628 50.633 C 290.356 46.694,288.045 40.800,285.773 40.800 C 285.458 40.800,285.200 40.638,285.200 40.439 C 285.200 39.315,278.453 38.764,276.400 39.720 M192.400 42.822 C 178.689 43.916,161.755 47.580,149.634 52.076 C 147.305 52.939,144.410 53.997,143.200 54.427 C 139.395 55.778,123.601 63.823,118.800 66.857 C 91.657 84.007,71.554 106.109,57.413 134.344 C 55.976 137.214,54.800 139.655,54.800 139.769 C 54.800 139.883,54.356 140.947,53.813 142.134 C 45.073 161.243,39.856 188.528,40.555 211.486 C 41.377 238.489,49.388 267.379,61.846 288.264 C 62.261 288.959,63.188 290.536,63.906 291.768 C 77.144 314.481,100.758 337.454,124.400 350.619 C 219.275 403.453,337.970 352.822,364.972 248.000 C 375.402 207.511,369.042 160.013,348.570 125.491 C 315.243 69.294,255.697 37.773,192.400 42.822 M223.991 47.789 C 238.091 49.292,253.889 53.432,268.000 59.324 C 298.571 72.087,327.171 97.105,343.536 125.400 C 344.682 127.380,345.784 129.270,345.985 129.600 C 358.078 149.370,366.608 184.203,365.870 210.800 C 365.287 231.796,361.084 251.145,352.925 270.400 C 351.049 274.825,345.041 286.714,343.697 288.657 C 343.263 289.286,341.962 291.330,340.807 293.200 C 302.454 355.280,221.658 383.240,152.290 358.437 C 143.396 355.257,142.096 354.712,135.000 351.199 C 62.013 315.067,27.625 232.429,53.462 155.250 C 54.686 151.593,55.824 148.420,55.991 148.200 C 56.157 147.980,56.689 146.720,57.173 145.400 C 59.323 139.532,65.976 127.118,71.537 118.600 C 97.360 79.042,142.574 51.770,189.200 47.630 C 191.950 47.386,194.920 47.117,195.800 47.032 C 199.318 46.693,218.552 47.210,223.991 47.789 M177.597 83.574 C 173.062 84.953,171.385 87.845,173.071 91.381 C 175.346 96.150,186.538 93.595,186.531 88.309 C 186.526 84.020,182.735 82.011,177.597 83.574 M183.368 86.365 C 185.244 88.438,183.041 90.626,178.618 91.083 C 175.994 91.354,175.200 90.870,175.200 89.000 C 175.200 86.438,181.573 84.382,183.368 86.365 M261.767 89.183 C 256.524 91.333,257.995 97.459,264.459 100.392 C 270.435 103.104,274.781 96.563,269.938 92.144 C 267.744 90.142,263.330 88.542,261.767 89.183 M266.692 93.002 C 272.107 96.648,269.435 100.741,263.926 97.241 C 261.202 95.511,260.568 94.410,261.384 92.830 C 262.275 91.109,263.962 91.163,266.692 93.002 M180.089 95.788 C 172.639 98.114,174.019 106.655,181.714 105.851 C 187.895 105.205,190.642 102.222,188.950 97.993 C 187.874 95.303,184.406 94.440,180.089 95.788 M185.911 98.223 C 188.736 100.202,185.514 103.191,180.549 103.198 C 176.284 103.204,177.489 98.923,182.001 98.040 C 184.635 97.524,184.934 97.538,185.911 98.223 M253.638 100.629 C 250.210 103.514,251.617 107.761,256.889 110.438 C 261.462 112.760,265.200 111.125,265.200 106.800 C 265.200 101.984,257.140 97.682,253.638 100.629 M258.545 102.551 C 262.090 104.033,263.653 106.665,262.077 108.500 C 260.520 110.313,254.400 107.011,254.400 104.359 C 254.400 102.213,256.031 101.501,258.545 102.551 M188.200 107.202 C 187.540 107.383,184.870 108.025,182.267 108.629 L 177.535 109.728 177.794 111.107 C 178.413 114.409,180.556 115.629,180.878 112.863 C 180.994 111.863,181.251 111.751,186.073 110.605 C 191.754 109.256,191.796 109.234,191.440 107.819 C 191.166 106.725,190.441 106.586,188.200 107.202 M247.426 110.359 C 245.964 112.675,246.705 114.016,248.743 112.743 C 249.417 112.322,249.767 112.402,251.068 113.276 C 258.307 118.138,258.941 118.432,259.586 117.226 C 260.207 116.066,260.116 115.841,258.700 115.011 C 257.985 114.592,255.651 113.110,253.512 111.717 C 248.403 108.389,248.637 108.441,247.426 110.359 M185.346 115.396 C 185.081 116.086,186.308 121.978,186.858 122.659 C 187.330 123.242,188.800 122.878,188.800 122.178 C 188.800 121.660,187.766 116.882,187.354 115.500 C 187.100 114.646,185.663 114.572,185.346 115.396 M249.028 119.000 C 248.146 120.638,248.075 120.653,246.258 119.582 L 244.871 118.763 244.223 119.682 C 243.530 120.665,243.733 120.987,245.829 122.229 C 246.516 122.636,246.505 122.735,245.609 124.185 C 244.697 125.661,244.691 125.731,245.409 126.256 C 246.467 127.030,246.633 126.965,247.600 125.400 C 248.602 123.778,248.671 123.761,250.000 124.800 C 251.300 125.817,251.866 125.798,252.444 124.717 C 252.839 123.980,252.800 123.766,252.211 123.417 C 251.823 123.188,251.135 122.712,250.683 122.360 L 249.860 121.720 250.773 120.438 C 251.647 119.210,251.656 119.125,250.981 118.379 C 250.035 117.334,249.902 117.376,249.028 119.000 M101.400 124.518 C 98.009 126.437,95.453 131.909,96.745 134.481 C 98.987 138.942,103.668 138.393,107.068 133.270 C 110.928 127.456,106.981 121.361,101.400 124.518 M105.386 127.184 C 107.475 129.493,102.798 135.939,100.246 134.267 C 98.851 133.353,98.886 131.852,100.358 129.530 C 102.275 126.507,104.031 125.688,105.386 127.184 M111.355 131.676 C 105.954 135.513,105.142 141.610,109.713 144.000 L 111.625 145.000 113.513 143.973 C 115.684 142.790,118.601 138.867,119.037 136.543 C 119.807 132.437,114.773 129.248,111.355 131.676 M39.000 132.324 C 32.102 135.251,31.724 145.948,38.397 149.398 C 39.954 150.204,39.956 150.203,40.626 148.600 C 41.183 147.267,41.306 147.200,43.191 147.200 C 48.745 147.200,51.250 139.965,47.053 136.045 C 46.262 135.306,46.118 134.927,46.415 134.371 C 47.073 133.142,46.862 132.110,45.900 131.852 C 44.206 131.398,40.601 131.644,39.000 132.324 M115.669 134.262 C 117.416 135.843,114.192 141.600,111.559 141.600 C 109.048 141.600,108.629 139.865,110.443 136.978 C 112.680 133.418,113.986 132.740,115.669 134.262 M121.582 136.833 C 121.098 137.739,121.275 137.952,123.921 139.646 C 125.530 140.676,125.511 140.698,122.565 141.230 C 116.643 142.297,114.112 147.231,118.048 150.034 C 120.232 151.590,124.800 151.036,124.800 149.215 C 124.800 148.456,122.802 147.438,122.299 147.941 C 121.531 148.709,119.676 148.490,119.186 147.573 C 118.109 145.561,120.849 143.778,125.675 143.352 C 131.069 142.876,131.233 141.758,126.391 138.459 C 122.361 135.713,122.209 135.662,121.582 136.833 M369.300 142.792 C 368.377 143.184,368.214 143.990,368.774 145.400 C 369.010 145.995,368.802 146.532,367.964 147.493 C 364.546 151.413,366.194 156.956,371.117 158.104 C 372.854 158.509,373.277 158.777,373.472 159.599 C 374.013 161.875,375.516 161.847,378.447 159.507 C 383.326 155.611,382.902 146.810,377.707 144.167 C 376.878 143.745,376.076 143.226,375.923 143.014 C 375.547 142.489,370.417 142.317,369.300 142.792 M133.119 147.675 L 132.136 148.950 130.612 148.007 C 129.139 147.097,129.069 147.091,128.544 147.809 C 127.742 148.906,127.867 149.349,129.200 150.136 C 130.638 150.986,130.669 151.268,129.500 152.851 L 128.600 154.069 129.592 154.873 L 130.584 155.677 131.842 154.180 L 133.099 152.682 134.498 153.749 L 135.897 154.817 136.583 153.770 C 137.235 152.775,137.232 152.697,136.534 152.194 C 134.215 150.523,134.296 150.736,135.377 149.146 C 136.322 147.757,136.334 147.664,135.651 147.046 C 134.638 146.130,134.234 146.230,133.119 147.675 M199.825 157.990 C 195.161 165.874,194.528 166.763,193.425 166.976 C 184.705 168.658,173.427 178.273,168.450 188.267 C 163.613 197.981,163.290 215.716,167.824 222.686 C 168.141 223.173,168.400 223.855,168.400 224.200 C 168.400 224.839,168.699 225.384,171.092 229.102 C 182.896 247.439,208.851 252.596,227.299 240.269 C 254.313 222.219,250.414 180.680,220.569 168.570 C 218.606 167.773,216.730 166.989,216.400 166.828 C 215.817 166.543,213.900 163.482,208.277 153.860 C 206.779 151.297,205.429 149.209,205.277 149.220 C 205.125 149.231,202.671 153.177,199.825 157.990 M319.000 152.614 C 315.324 154.482,315.514 160.209,319.386 164.250 C 322.937 167.956,328.495 165.354,327.824 160.300 C 327.034 154.341,322.822 150.673,319.000 152.614 M322.909 155.500 C 325.969 158.881,325.493 164.394,322.242 163.230 C 320.203 162.499,318.116 156.130,319.606 155.188 C 320.559 154.585,322.224 154.742,322.909 155.500 M307.766 157.369 C 304.821 158.651,304.112 161.330,305.637 165.407 C 307.385 170.079,310.376 171.798,313.870 170.140 C 320.071 167.197,314.064 154.626,307.766 157.369 M311.018 159.906 C 312.303 160.810,314.099 165.335,313.731 166.742 C 312.762 170.449,307.600 166.366,307.600 161.891 C 307.600 159.918,309.481 158.826,311.018 159.906 M296.600 161.982 C 294.534 162.836,292.735 166.493,294.120 167.025 C 295.035 167.376,296.273 166.560,296.560 165.417 C 296.823 164.371,298.283 163.716,299.399 164.144 C 300.424 164.538,300.145 166.587,298.982 167.209 C 297.180 168.174,297.813 169.400,300.114 169.400 C 302.222 169.400,302.875 169.952,302.704 171.593 C 302.566 172.911,300.830 173.565,299.442 172.822 C 298.398 172.264,296.400 172.529,296.400 173.226 C 296.400 175.153,300.365 176.259,302.785 175.008 C 306.145 173.270,306.394 168.923,303.209 167.604 C 302.188 167.181,302.109 167.015,302.416 165.944 C 303.312 162.819,300.012 160.570,296.600 161.982 M286.300 169.076 C 285.440 169.300,285.411 170.075,286.205 171.609 C 286.808 172.776,286.805 172.781,285.205 173.598 C 283.450 174.493,283.346 174.700,284.122 175.761 C 284.612 176.431,284.741 176.435,286.184 175.833 C 287.030 175.479,287.746 175.237,287.773 175.295 C 287.801 175.353,288.130 176.075,288.505 176.900 C 289.224 178.481,289.582 178.652,290.805 177.997 C 291.499 177.626,291.512 177.488,290.979 176.210 C 290.187 174.316,290.210 174.239,291.800 173.481 C 294.322 172.278,293.420 170.278,290.817 171.300 L 289.172 171.947 288.543 170.373 C 287.925 168.830,287.712 168.707,286.300 169.076 M214.879 170.350 C 234.088 175.383,246.029 195.256,241.226 214.200 C 232.718 247.762,186.606 252.325,172.505 221.000 C 159.975 193.165,185.502 162.653,214.879 170.350 M107.436 205.142 C 107.320 205.330,107.338 208.488,107.476 212.160 L 107.727 218.836 109.963 218.718 C 112.537 218.582,113.469 217.187,111.490 216.434 C 110.491 216.055,110.000 212.857,110.000 206.739 C 110.000 204.851,108.278 203.779,107.436 205.142 M85.931 205.494 C 79.979 206.347,81.016 219.600,87.035 219.600 C 90.952 219.600,92.620 217.218,92.321 212.053 C 92.025 206.940,90.041 204.904,85.931 205.494 M96.470 206.202 C 94.379 207.962,93.781 213.669,95.367 216.735 C 97.316 220.504,102.908 220.270,104.277 216.363 C 106.811 209.133,101.382 202.069,96.470 206.202 M72.357 206.199 C 68.610 208.236,68.654 217.463,72.421 219.411 C 76.442 221.490,79.980 218.539,79.993 213.096 C 80.008 207.278,76.387 204.008,72.357 206.199 M118.214 206.872 C 118.113 207.162,117.979 208.030,117.915 208.800 C 117.805 210.140,117.727 210.205,116.100 210.323 C 113.410 210.518,113.481 212.800,116.177 212.800 L 117.954 212.800 118.077 214.500 C 118.264 217.082,120.533 217.123,120.721 214.548 C 120.837 212.961,120.904 212.886,122.421 212.643 C 123.853 212.414,124.000 212.279,124.000 211.191 C 124.000 210.017,123.965 209.996,122.420 210.243 C 120.722 210.515,120.625 210.392,120.312 207.600 C 120.189 206.499,118.541 205.927,118.214 206.872 M101.200 208.400 C 103.383 210.583,101.947 217.030,99.345 216.730 C 96.159 216.362,96.404 207.600,99.600 207.600 C 100.040 207.600,100.760 207.960,101.200 208.400 M88.977 208.889 C 90.578 211.174,89.473 217.200,87.454 217.200 C 85.108 217.200,83.670 211.584,85.357 209.009 C 86.219 207.694,88.097 207.632,88.977 208.889 M76.706 209.600 C 77.307 210.745,77.221 216.154,76.593 216.742 C 73.825 219.334,70.723 213.081,72.826 209.151 C 73.465 207.958,75.998 208.251,76.706 209.600 M294.745 233.280 C 294.005 235.083,293.344 236.693,293.274 236.856 C 293.069 237.342,295.522 238.451,295.801 237.999 C 296.590 236.721,299.300 238.095,299.300 239.772 C 299.300 242.770,295.887 243.532,294.542 240.834 C 293.635 239.015,292.000 238.620,292.000 240.220 C 292.000 243.531,296.362 246.105,299.104 244.412 C 303.430 241.741,302.396 235.600,297.620 235.600 C 296.704 235.600,296.628 235.303,297.176 233.862 L 297.553 232.872 300.276 233.995 C 302.745 235.012,303.047 235.057,303.505 234.475 C 304.316 233.445,303.934 233.085,300.370 231.523 C 295.983 229.600,296.294 229.503,294.745 233.280 M282.822 231.717 C 282.380 232.870,282.427 232.908,286.379 234.571 C 288.925 235.642,289.835 235.870,290.073 235.496 C 290.845 234.280,290.313 233.765,286.779 232.317 L 283.161 230.835 282.822 231.717 M307.800 236.213 C 304.392 237.904,302.123 245.305,304.282 247.691 C 308.119 251.930,313.942 248.280,314.662 241.184 C 315.069 237.175,311.327 234.464,307.800 236.213 M311.757 239.260 C 312.912 240.909,310.772 246.239,308.655 246.983 C 307.120 247.523,305.441 245.773,305.866 244.076 C 307.118 239.066,309.981 236.725,311.757 239.260 M319.359 240.972 C 316.168 242.361,313.612 249.727,315.424 252.313 C 318.641 256.906,324.513 253.908,326.014 246.907 C 326.951 242.539,323.279 239.265,319.359 240.972 M322.983 243.738 C 324.615 244.932,322.422 251.278,320.183 251.840 C 317.425 252.532,316.530 250.056,318.224 246.417 C 319.793 243.046,321.060 242.332,322.983 243.738 M137.589 263.450 C 133.993 265.683,134.068 269.169,137.798 273.156 C 141.653 277.278,145.619 277.413,148.002 273.504 C 150.860 268.816,142.283 260.534,137.589 263.450 M143.113 267.798 C 146.073 270.459,146.174 273.200,143.312 273.200 C 142.116 273.200,138.000 269.213,138.000 268.055 C 138.000 265.552,140.477 265.427,143.113 267.798 M242.900 275.065 C 242.039 275.412,242.340 276.395,244.241 279.446 C 246.218 282.617,246.282 282.667,247.357 281.881 C 248.032 281.387,244.521 274.719,243.645 274.832 C 243.510 274.849,243.175 274.954,242.900 275.065 M192.800 281.167 C 192.800 283.296,192.497 283.598,190.621 283.341 C 189.088 283.131,188.894 283.199,188.678 284.023 C 188.345 285.298,188.574 285.517,190.556 285.814 L 192.293 286.075 192.095 287.837 C 191.897 289.588,191.905 289.600,193.148 289.600 C 194.342 289.600,194.400 289.526,194.400 288.000 L 194.400 286.400 196.400 286.400 C 199.286 286.400,199.561 284.130,196.700 283.923 L 195.000 283.800 195.133 281.900 C 195.265 280.015,195.256 280.000,194.033 280.000 C 192.937 280.000,192.800 280.130,192.800 281.167 M251.629 282.373 C 250.614 283.016,252.002 284.553,253.620 284.578 C 255.179 284.603,256.229 286.024,255.583 287.233 C 254.677 288.925,251.967 289.027,247.321 287.541 C 245.059 286.818,243.200 286.935,243.200 287.801 C 243.200 288.054,247.254 294.512,247.785 295.104 C 249.249 296.738,249.805 294.538,248.471 292.391 C 246.882 289.835,246.884 289.833,249.989 290.628 C 253.932 291.639,256.765 290.738,257.856 288.129 C 259.290 284.697,254.685 280.440,251.629 282.373 M257.800 292.461 C 256.480 293.341,255.136 294.211,254.813 294.394 C 254.008 294.853,255.023 296.800,256.068 296.800 C 257.040 296.800,258.400 298.199,258.400 299.200 C 258.400 300.357,256.982 301.600,255.662 301.600 C 254.042 301.600,253.046 300.363,253.339 298.716 C 253.641 297.019,252.735 295.624,251.823 296.381 C 249.266 298.503,252.044 304.000,255.674 304.000 C 260.487 304.000,262.722 298.099,258.720 295.957 L 257.848 295.490 258.768 294.745 C 260.170 293.610,260.564 293.802,262.168 296.400 C 263.770 298.997,263.843 299.045,264.926 298.224 C 265.610 297.706,265.528 297.473,263.526 294.252 C 261.091 290.334,261.025 290.313,257.800 292.461 M187.771 293.038 C 184.445 294.732,184.352 299.943,187.618 301.609 C 191.485 303.582,195.266 301.154,194.629 297.109 L 194.394 295.619 195.697 295.867 C 196.414 296.003,197.038 296.142,197.084 296.175 C 197.131 296.208,197.030 297.536,196.860 299.127 C 196.526 302.254,196.562 302.400,197.677 302.400 C 198.838 302.400,200.374 294.525,199.337 293.885 C 196.517 292.142,190.024 293.637,191.815 295.617 C 192.783 296.686,192.554 298.680,191.375 299.453 C 188.732 301.185,186.259 297.605,188.600 295.435 C 190.408 293.759,189.801 292.003,187.771 293.038 M52.453 298.234 C 49.902 301.133,49.559 307.297,51.786 310.218 C 55.640 315.270,67.550 315.501,64.575 310.466 C 63.903 309.327,63.909 309.251,64.781 308.027 C 67.815 303.765,64.303 298.098,58.887 298.516 C 56.440 298.705,56.358 298.679,55.777 297.555 C 54.957 295.971,54.334 296.098,52.453 298.234 M262.916 303.182 C 257.810 305.500,256.171 309.664,259.138 312.783 C 261.529 315.296,266.313 314.283,269.569 310.574 C 273.715 305.852,268.877 300.476,262.916 303.182 M186.555 305.192 C 183.254 306.526,183.020 311.635,186.172 313.583 C 191.255 316.724,197.523 314.941,197.913 310.243 C 198.260 306.064,191.660 303.129,186.555 305.192 M268.379 306.082 C 269.834 308.686,262.941 313.341,260.800 311.200 C 259.152 309.552,260.244 307.524,263.800 305.630 C 265.906 304.507,267.593 304.674,268.379 306.082 M348.490 307.164 C 347.729 308.193,347.447 308.303,346.061 308.117 C 341.402 307.493,337.840 311.810,339.332 316.275 C 339.946 318.111,339.939 318.250,339.188 319.284 C 338.135 320.732,338.176 320.934,339.771 322.150 C 344.275 325.586,352.621 323.188,353.975 318.069 C 354.721 315.248,354.930 314.197,354.825 313.800 C 354.766 313.580,354.464 312.410,354.153 311.200 C 353.129 307.214,350.066 305.032,348.490 307.164 M194.640 308.189 C 197.398 309.996,195.240 312.596,191.221 312.309 C 186.799 311.992,184.758 309.641,187.300 307.790 C 188.425 306.970,193.174 307.229,194.640 308.189 M186.052 317.187 C 181.039 318.421,181.516 325.339,186.712 326.782 C 193.637 328.705,199.004 324.660,195.992 319.788 C 194.693 317.686,189.520 316.332,186.052 317.187 M193.411 320.810 C 196.495 323.708,190.051 326.360,186.145 323.801 C 184.969 323.030,184.817 320.677,185.900 320.006 C 187.195 319.204,192.280 319.748,193.411 320.810 M199.248 377.554 C 198.505 377.950,197.470 378.978,196.950 379.837 C 196.128 381.194,195.811 381.400,194.551 381.400 C 192.758 381.400,192.019 382.302,192.690 383.674 C 192.939 384.183,193.256 385.286,193.394 386.124 C 194.434 392.428,204.766 394.604,209.458 389.506 C 211.961 386.788,212.482 381.600,210.253 381.600 C 209.123 381.600,208.734 381.340,207.837 379.984 C 205.807 376.917,202.304 375.926,199.248 377.554 " stroke="none" fill="#f8f6e2" fill-rule="evenodd"></path></g></svg>